
<svg xmlns="http://www.w3.org/2000/svg" version="1.1" xmlns:xlink="http://www.w3.org/1999/xlink" preserveAspectRatio="none" x="0px" y="0px" width="80px" height="80px" viewBox="0 0 80 80">
<defs>
<g id="bell_basic_0_Layer1_0_FILL">
<path fill="#FFE02B" stroke="none" d="
M 270.75 47.9
Q 272.1 41.95 271 36 269.9 29.85 266.5 24.95 263.7 20.95 259.55 18.1 255.4 15.3 250.6 14.15 245.8 13.05 240.85 13.75 235.85 14.45 231.55 16.8 227.6 19 222.05 24.3 220.75 25.55 220 26.05 218.75 26.9 217.55 27.05 216.15 27.2 213.35 26.05 209.5 24.55 202.05 23.1 191.7 20.95 184.1 19.55 171.05 17.2 162.3 17.25 150.25 17.25 141.25 21.3 129.8 26.5 118.35 41.05 104.55 58.35 99.3 75.6 98.75 77.5 98.35 78.35 97.65 79.85 96.6 80.65 95.4 81.55 92.25 81.95 77.8 83.05 70.65 83.9 58.2 85.35 49.85 88.8 37.15 94.05 27.3 105.55 22.3 111.5 19.4 117.3 15.85 124.55 15 132.65 14.1 140.8 15.95 148.6 17.3 154.25 20.6 161.5 24.15 169.25 27.75 173.95 32.6 180.4 43.1 188.15 56.6 198.2 59.75 201.15 62.2 203.5 62.75 205.3 63.1 206.55 62.9 208.2 62.75 209.15 62.25 211.1 58.6 224.2 58.6 232.55 58.6 242.15 62.55 251.65 66.25 260.7 72.95 268.3 80.3 276.6 88.05 279.55 94.05 281.9 101.05 281.5 107.65 281.1 113.9 278.35 124.9 273.55 134.5 262 135.55 260.75 136.2 260.25 137.25 259.4 138.3 259.45 139.35 259.45 140.75 260.3 150.45 265.55 165.4 271.15 175.9 275.1 183.55 277.1 193.55 279.8 202.25 280.3 212.25 280.95 221.25 278.65 231.05 276.15 238.3 270.55 245 265.35 249.3 257.6 253.5 250 254.55 241.4 255.6 232.95 253.6 224.4 251.65 215.95 247.05 208.65 245 205.35 244.6 204.6 243.35 202.2 243.2 200.2 242.95 197.65 244.5 193.75 246.1 189.75 247.95 187 249.15 185.3 253.65 180.3 265 167.85 276.15 148.95 280.5 141.55 282.7 136.3 285.7 129.1 286.25 122.7 287 113.7 283.15 103.05 280.7 96.3 274.4 84.55
L 265.25 67.6
Q 264.1 65.4 264.15 64.2 264.15 63.05 265.45 60.75 269.5 53.85 270.75 47.9 Z"/>
</g>

<g id="bell_basic_0_Layer0_0_FILL">
<path fill="#78550B" stroke="none" d="
M 282.35 40.5
Q 282.5 31.1 277.9 22.05 270.3 7.2 254.45 2.05 238.65 -3.05 223.85 4.5 214.55 9.2 209.15 17.2 193.35 11.85 174.85 10 124.3 4.9 104.4 35.05 87.3 60.9 77.15 77.1 46.75 74.95 24.8 88.2 -3.4 105.2 0.45 137.85 4.3 157.75 14.7 175.1 25.7 193.45 53.65 215.85 50.7 220.9 48.8 226.85 42.2 247.5 52.2 266.8 62.2 286.05 82.9 292.6 103.55 299.15 122.85 289.15 133.35 283.7 140.1 275.1 169 291.55 188.95 295.05 204.05 297.7 219.2 296.35 224.05 295.9 228.9 295.05 260.8 287.05 266.55 254.55 271.1 229.3 258.2 201.75 269.65 186.5 287.7 161.25 308.75 131.95 288.5 89.65 288 88.6 287.5 87.6 281.5 75.45 273.8 65.05 277.95 59.65 280.25 52.65 282.25 46.5 282.35 40.5
M 247.95 17.25
Q 248.6 17.45 249.3 17.65 257.25 20.2 261.05 27.75 264.9 35.25 262.3 43.2 262.15 43.7 262 44.2 261.05 46.65 259.65 48.7 255.08359375 44.2099609375 250.1 40.15 245.3171875 36.251953125 240.15 32.75 235.8 29.75 231.25 27.1 229.05 25.85 226.8 24.65 229.4087890625 21.2201171875 233.5 19.05 233.6541015625 18.974609375 233.8 18.9 240.65 15.4 247.95 17.25
M 217.3 37.65
Q 224.7 41 231.9 45.2 253.8 62.7 268.45 86.05 275.9 97.85 278.5 108.6 282.9 126.5 273.75 141.45 259.15 165.4 248.15 177.55 246.8 179.05 245.6 180.35 232.05 162 210 147.15 198.7 139.55 185.25 132.85 190.1 137.75 194.65 142.5 194.7 142.6 194.8 142.7 241.90546875 192.303125 248.05 224.7 248.073046875 224.8208984375 248.1 224.95 248.8990234375 229.2341796875 248.95 233.2 249.059375 237.9623046875 248.1 242.25 248.0912109375 242.4685546875 248.05 242.65 243.25 264.15 227.25 271.15 215.05 276.45 196.35 273.25 174.35 269.5 148.7 258.55
L 148.7 258.5
Q 150.20546875 253.742578125 150.85 249.05 150.8607421875 248.9689453125 150.85 248.85 151.667578125 242.76640625 150.95 236.75 149.90234375 227.505859375 145.25 218.55 144.8 217.7 144.35 216.9 154.75 201.55 161.2 192.5 181.6 210.6 190.85 222.25 196.1517578125 229.010546875 199.55 235.75
L 199.55 235.7
Q 199.7158203125 236.054296875 199.85 236.35 202.298046875 241.322265625 203.7 246.25 205.338671875 252.0333984375 205.6 256.05 205.943359375 260.41875 204.7 262.75 208.9 262.15 211.85 260.2 212.95 259.45 214 258.35 220.5 248.55 206.35 221.45 192.15 194.25 155.65 165.75 149.9 161.25 144.5 157.8 141.1 155.4 137.25 153 102.1 131.2 74.9 128.35 47.7 125.5 40.05 138.65 39.4 140 39.15 141.25 38.4 144.75 39.3 148.85 41.33515625 146.5455078125 46.15 144.6 47.110546875 144.25625 48.15 143.9 50.28359375 143.1533203125 52.85 142.45 53.37578125 142.3310546875 53.9 142.2 63.290234375 139.8525390625 75.05 142.7 77.3408203125 143.256640625 79.7 144 88.65 146.75 98.3 151.15 98.2 151.2 98.1 151.25 113.5 159.3 126.1 167 115.05 181.7 107.95 191.05 96.0875 188.801953125 84.7 192.1 79.628125 193.6107421875 74.65 196.2 74.4703125 196.292578125 74.3 196.35
L 74.25 196.4
Q 69.5314453125 198.8853515625 65.65 202 44.55 180.75 32.45 160.4 17.6 135.3 27.1 117.35 31.8 108.35 42.55 101.2 56.8599609375 91.6689453125 82.8 94.3 89.863671875 95.0150390625 97.75 96.6
L 97.75 96.6
Q 115.9044921875 100.3359375 138.55 108.75 152.2 113.8 167.55 120.6 155.25 109.25 142.85 100.9 122.3 87 101.65 81.25 102.45 79.6 103.35 77.8 110.75 63.2 127.85 41.05 144.9 18.9 181.4 26.15 200 29.8 217.3 37.65
M 146.6 180.65
Q 147.15 181.05 147.75 181.5 138.6 193.65 132.2 202.1 129.2 199.65 125.85 197.7 135 184.3 140.6 176.5 143.5 178.5 146.6 180.65
M 83.65 209.65
Q 96.75 202.85 110.85 207.35 124.9 211.8 131.7 224.85 138.45 237.85 134.15 251.85 134.05 251.8 133.95 251.75 133.25 253.8 132.55 256.05 127.6 267.05 116.45 272.85 103.4 279.65 89.35 275.2 75.25 270.75 68.45 257.65 61.65 244.6 66.15 230.5 70.6 216.45 83.65 209.65 Z"/>

<path fill="#D9AC1F" stroke="none" d="
M 110.85 207.35
Q 96.75 202.85 83.65 209.65 70.6 216.45 66.15 230.5 61.65 244.6 68.45 257.65 75.25 270.75 89.35 275.2 103.4 279.65 116.45 272.85 127.6 267.05 132.55 256.05 133.25 253.8 133.95 251.75 134.05 251.8 134.15 251.85 138.45 237.85 131.7 224.85 124.9 211.8 110.85 207.35
M 127.9 225.85
Q 133 231.85 132.8 239.05 132.8 243.2 130.95 247.8 128.325 254.0595703125 123.8 257.2 122.7326171875 257.973046875 121.55 258.55 117.2978515625 260.6498046875 108.3 260.05 99.3064453125 259.45 94.6 254 89.8935546875 248.5498046875 89.55 242.75 89.2021484375 236.95 90.3 233.3 90.7 232.2 91.25 231.15 92.03359375 229.6333984375 93.1 228.25 94.190234375 226.93671875 95.55 225.75 98.05 223.05 101.6 221.15 108.45 217.45 115.55 218.65 121.25 219.65 125.65 223.55 126.05 223.9 126.45 224.3 127.2 225.05 127.9 225.85
M 147.75 181.5
Q 147.15 181.05 146.6 180.65 143.5 178.5 140.6 176.5 135 184.3 125.85 197.7 129.2 199.65 132.2 202.1 138.6 193.65 147.75 181.5
M 97.75 96.6
Q 89.863671875 95.0150390625 82.8 94.3 56.8599609375 91.6689453125 42.55 101.2 31.8 108.35 27.1 117.35 17.6 135.3 32.45 160.4 44.55 180.75 65.65 202 69.5314453125 198.8853515625 74.25 196.4 70.1509765625 191.9435546875 66.4 187.1 56.05 173.8 49.2 158.6 46.9 153.5 46.25 149.65 45.8287109375 146.9384765625 46.15 144.6 41.33515625 146.5455078125 39.3 148.85 38.4 144.75 39.15 141.25 39.4 140 40.05 138.65 47.7 125.5 74.9 128.35 102.1 131.2 137.25 153 141.1 155.4 144.5 157.8 149.9 161.25 155.65 165.75 192.15 194.25 206.35 221.45 220.5 248.55 214 258.35 212.95 259.45 211.85 260.2 208.9 262.15 204.7 262.75 205.943359375 260.41875 205.6 256.05
L 205.6 256.1
Q 201.9 258.7 197.25 259.65 190.05 261.1 179.25 258.75 165.616796875 255.801171875 150.85 249.05 150.20546875 253.742578125 148.7 258.5
L 148.7 258.55
Q 174.35 269.5 196.35 273.25 215.05 276.45 227.25 271.15 243.25 264.15 248.05 242.65 248.0912109375 242.4685546875 248.1 242.25 249.059375 237.9623046875 248.95 233.2 248.8990234375 229.2341796875 248.1 224.95 248.073046875 224.8208984375 248.05 224.7 247.4203125 226.983203125 247.7 231.35 247.9677734375 235.7208984375 243.2 239.75 238.4279296875 243.7873046875 235.1 243.8 231.8244140625 243.8037109375 229 242 226.221875 240.1982421875 223.65 235 221.130078125 229.85703125 215.55 219.4 209.3 207.65 199.3 194.65 181.5 171.6 159.65 153.5 137.1 134.85 111.6 122.65 100.2666015625 117.2970703125 90.1 114.1 89.014453125 112.565625 88.4 111.15 86.85 107.45 87.9 104.25 89.15 100.45 94.15 98.05 95.836328125 97.217578125 97.75 96.6
M 236.45 153.25
Q 228.65 155.45 215.6 149.65 212.25 148.15 210 147.15 232.05 162 245.6 180.35 246.8 179.05 248.15 177.55 259.15 165.4 273.75 141.45 282.9 126.5 278.5 108.6 266.55 131.15 247.2 147.05 241 152 236.45 153.25
M 177.3 48.65
Q 187.1 41.45 199.6 38.8 208.4 36.95 217.3 37.65 200 29.8 181.4 26.15 144.9 18.9 127.85 41.05 110.75 63.2 103.35 77.8 102.45 79.6 101.65 81.25 122.3 87 142.85 100.9 147.8 91.55 154.2 78.05 164.95 57.85 177.3 48.65 Z"/>

<path fill="#FFE02B" stroke="none" d="
M 132.8 239.05
Q 133 231.85 127.9 225.85 127.2 225.05 126.45 224.3 126.05 223.9 125.65 223.55 121.25 219.65 115.55 218.65 108.45 217.45 101.6 221.15 98.05 223.05 95.55 225.75 94.190234375 226.93671875 93.1 228.25 92.03359375 229.6333984375 91.25 231.15 90.7 232.2 90.3 233.3 89.2021484375 236.95 89.55 242.75 89.8935546875 248.5498046875 94.6 254 99.3064453125 259.45 108.3 260.05 117.2978515625 260.6498046875 121.55 258.55 122.7326171875 257.973046875 123.8 257.2 128.325 254.0595703125 130.95 247.8 132.8 243.2 132.8 239.05
M 123.2 228.35
Q 124.5 229.3 125.25 230.75 126.45 232.95 126.65 236.75 126.65 237.2615234375 126.6 237.75 126.7373046875 243.7798828125 123.85 246.9 122.05 248.8 119 249.8 115.15 251.05 111.9 250.2 108 249.2 106.25 246 105.25 244.1 105.15 241.05 105.05 235.7 107.7 232.05 109.75 229.25 113.25 228.05 116.621484375 226.8458984375 119.85 227.65 120.3662109375 227.4712890625 120.4 227.1 121.9 227.3 123.2 228.35
M 231.9 45.2
Q 224.7 41 217.3 37.65 208.4 36.95 199.6 38.8 187.1 41.45 177.3 48.65 164.95 57.85 154.2 78.05 147.8 91.55 142.85 100.9 155.25 109.25 167.55 120.6 152.2 113.8 138.55 108.75 115.9044921875 100.3359375 97.75 96.6
L 97.75 96.6
Q 95.836328125 97.217578125 94.15 98.05 89.15 100.45 87.9 104.25 86.85 107.45 88.4 111.15 89.014453125 112.565625 90.1 114.1 100.2666015625 117.2970703125 111.6 122.65 137.1 134.85 159.65 153.5 181.5 171.6 199.3 194.65 209.3 207.65 215.55 219.4 221.130078125 229.85703125 223.65 235 226.221875 240.1982421875 229 242 231.8244140625 243.8037109375 235.1 243.8 238.4279296875 243.7873046875 243.2 239.75 247.9677734375 235.7208984375 247.7 231.35 247.4203125 226.983203125 248.05 224.7 241.90546875 192.303125 194.8 142.7 194.7 142.6 194.65 142.5 190.1 137.75 185.25 132.85 198.7 139.55 210 147.15 212.25 148.15 215.6 149.65 228.65 155.45 236.45 153.25 241 152 247.2 147.05 266.55 131.15 278.5 108.6 275.9 97.85 268.45 86.05 253.8 62.7 231.9 45.2
M 246.45 72.4
Q 245.85 75.85 244.05 79.75 242.9 82.35 240.4 86.65 233.45 98.75 228.6 105.6 221.55 115.65 214.05 122.25 209.35 126.4 205.5 127.95 200.2 130.2 195.45 128.7 192.75 127.85 190.5 125.6 188.4 123.5 187.2 120.65 185.1 115.7 185.7 109.05 186.05 104.35 187.7 100.75 188.45 99.25 190.65 95.9 201.5 80.2 208.05 72.2 215.05 63.75 221.4 58.6 226.6 54.35 230.7 54 233.3 53.75 236.5 54.75 240.25 55.95 242.5 58 245.25 60.5 246.25 64.6 247.2 68.4 246.45 72.4
M 173.25 141.85
Q 173.55 139.8 175.05 138.85 178 136.95 183 140.85 193.65 149.35 204.7 162.35 211.4 170.2 223.6 186.55
L 230.55 195.75
Q 234.45 201.15 235.8 203.55 239 209.35 239.9 215.75 240.8 222.3 237.75 225.2 235.65 227.2 232.4 226.95 229.3 226.7 226.85 224.75 224.8 223.1 223.1 220.25 221.95 218.3 220.5 214.85 215.3 202.4 212.35 196.65 206.8 186 197.75 174.7 191.25 166.55 180.15 154.8 177.6 152.2 176.35 150.55 174.4 148.05 173.6 145.65 172.95 143.7 173.25 141.85
M 165.7 124.25
Q 167.95 125.3 168.9 127.2 169.65 128.65 169.5 130.4 169.35 132.1 168.45 133.55 166.7 136.35 163.2 137.5 161 138.3 158.85 138 156.5 137.65 154.7 135.85 152.9 134 152.6 131.6 152.3 129.2 153.6 127 154.9 124.8 157.1 123.9 158.85 123.15 161.25 123.25 163.7 123.3 165.7 124.25
M 248.9 36.5
Q 247.2 31.45 245.55 28.3 243.65 24.65 241.65 22.85 239.55 21 236.85 20.05 236.05 19.8 233.95 19.3 233.631640625 19.2205078125 233.35 19.15 233.4306640625 19.1013671875 233.5 19.05 229.4087890625 21.2201171875 226.8 24.65 229.05 25.85 231.25 27.1 235.8 29.75 240.15 32.75 245.3171875 36.251953125 250.1 40.15 249.565625 38.4158203125 248.9 36.5 Z"/>

<path fill="#FFEF94" stroke="none" d="
M 125.25 230.75
Q 124.5 229.3 123.2 228.35 121.9 227.3 120.4 227.1 120.3662109375 227.4712890625 119.85 227.65 116.621484375 226.8458984375 113.25 228.05 109.75 229.25 107.7 232.05 105.05 235.7 105.15 241.05 105.25 244.1 106.25 246 108 249.2 111.9 250.2 115.15 251.05 119 249.8 122.05 248.8 123.85 246.9 126.7373046875 243.7798828125 126.6 237.75 126.65 237.2615234375 126.65 236.75 126.45 232.95 125.25 230.75
M 168.9 127.2
Q 167.95 125.3 165.7 124.25 163.7 123.3 161.25 123.25 158.85 123.15 157.1 123.9 154.9 124.8 153.6 127 152.3 129.2 152.6 131.6 152.9 134 154.7 135.85 156.5 137.65 158.85 138 161 138.3 163.2 137.5 166.7 136.35 168.45 133.55 169.35 132.1 169.5 130.4 169.65 128.65 168.9 127.2
M 175.05 138.85
Q 173.55 139.8 173.25 141.85 172.95 143.7 173.6 145.65 174.4 148.05 176.35 150.55 177.6 152.2 180.15 154.8 191.25 166.55 197.75 174.7 206.8 186 212.35 196.65 215.3 202.4 220.5 214.85 221.95 218.3 223.1 220.25 224.8 223.1 226.85 224.75 229.3 226.7 232.4 226.95 235.65 227.2 237.75 225.2 240.8 222.3 239.9 215.75 239 209.35 235.8 203.55 234.45 201.15 230.55 195.75
L 223.6 186.55
Q 211.4 170.2 204.7 162.35 193.65 149.35 183 140.85 178 136.95 175.05 138.85
M 244.05 79.75
Q 245.85 75.85 246.45 72.4 247.2 68.4 246.25 64.6 245.25 60.5 242.5 58 240.25 55.95 236.5 54.75 233.3 53.75 230.7 54 226.6 54.35 221.4 58.6 215.05 63.75 208.05 72.2 201.5 80.2 190.65 95.9 188.45 99.25 187.7 100.75 186.05 104.35 185.7 109.05 185.1 115.7 187.2 120.65 188.4 123.5 190.5 125.6 192.75 127.85 195.45 128.7 200.2 130.2 205.5 127.95 209.35 126.4 214.05 122.25 221.55 115.65 228.6 105.6 233.45 98.75 240.4 86.65 242.9 82.35 244.05 79.75
M 249.3 17.65
Q 248.6 17.45 247.95 17.25 240.65 15.4 233.8 18.9 233.6541015625 18.974609375 233.5 19.05 233.4306640625 19.1013671875 233.35 19.15 233.631640625 19.2205078125 233.95 19.3 236.05 19.8 236.85 20.05 239.55 21 241.65 22.85 243.65 24.65 245.55 28.3 247.2 31.45 248.9 36.5 249.565625 38.4158203125 250.1 40.15 255.08359375 44.2099609375 259.65 48.7 261.05 46.65 262 44.2 262.15 43.7 262.3 43.2 264.9 35.25 261.05 27.75 257.25 20.2 249.3 17.65 Z"/>

<path fill="#B1890B" stroke="none" d="
M 144.35 216.9
Q 144.8 217.7 145.25 218.55 149.90234375 227.505859375 150.95 236.75 151.667578125 242.76640625 150.85 248.85 150.8607421875 248.9689453125 150.85 249.05 165.616796875 255.801171875 179.25 258.75 190.05 261.1 197.25 259.65 201.9 258.7 205.6 256.1
L 205.6 256.05
Q 205.338671875 252.0333984375 203.7 246.25 202.298046875 241.322265625 199.85 236.35 199.7158203125 236.054296875 199.55 235.7
L 199.55 235.75
Q 196.1517578125 229.010546875 190.85 222.25 181.6 210.6 161.2 192.5 154.75 201.55 144.35 216.9
M 79.7 144
Q 77.3408203125 143.256640625 75.05 142.7 63.290234375 139.8525390625 53.9 142.2 53.37578125 142.3310546875 52.85 142.45 50.28359375 143.1533203125 48.15 143.9 47.110546875 144.25625 46.15 144.6 45.8287109375 146.9384765625 46.25 149.65 46.9 153.5 49.2 158.6 56.05 173.8 66.4 187.1 70.1509765625 191.9435546875 74.25 196.4
L 74.3 196.35
Q 74.4703125 196.292578125 74.65 196.2 79.628125 193.6107421875 84.7 192.1 96.0875 188.801953125 107.95 191.05 115.05 181.7 126.1 167 113.5 159.3 98.1 151.25 98.2 151.2 98.3 151.15 88.65 146.75 79.7 144 Z"/>
</g>
</defs>

<g transform="matrix( 0.24591064453125, 0, 0, 0.24591064453125, 3.3,3.85) ">
<g transform="matrix( 1, 0, 0, 1, 0,0) ">
<use xlink:href="#bell_basic_0_Layer1_0_FILL"/>
</g>

<g transform="matrix( 1, 0, 0, 1, 0,0) ">
<use xlink:href="#bell_basic_0_Layer0_0_FILL"/>
</g>
</g>
</svg>
