
<svg xmlns="http://www.w3.org/2000/svg" version="1.1" xmlns:xlink="http://www.w3.org/1999/xlink" preserveAspectRatio="none" x="0px" y="0px" width="80px" height="80px" viewBox="0 0 80 80">
<defs>
<g id="world_basic_0_Layer1_0_FILL">
<path fill="#B9CCF0" stroke="none" d="
M 160.3 288.55
Q 159.4 289.9 159.35 291.7 159.35 293.35 160 295 161 297.45 164 300.35 150 304.3 132.8 304.3 119.35 304.35 101.15 301.85 97.15 301.35 95.4 302.3 94.25 302.9 93.5 304.15 92.8 305.35 92.7 306.75 92.45 309.3 94 311.85 95.4 314.15 97.8 315.75 99.65 317 102.65 318.25 104.35 318.95 107.75 320.3 108.35 320.55 116 324.55 120.95 327.15 124.5 327.95 126.1 328.35 129.4 328.95 131.15 329.4 135.85 331.65 142.8 335.1 147.1 336.95 153.35 339.6 158.75 340.9 172.4 344.3 183.2 340.4 194.4 336.35 204.15 323.4 209.7 323.4 214.8 321 220 318.55 223.5 314.3 225.1 312.4 225.65 310.5 226.35 308.2 225.35 306.45 224.85 305.55 223.7 304.75 223.5 304.6 221.6 303.45 220.05 302.45 217.75 300.55 214.8 298.05 214.05 297.45 209 293.65 201.5 291.2 196.8 289.6 187.75 287.7 181.2 286.3 178.1 285.85 172.65 285.05 168.3 285.2 162.3 285.4 160.3 288.55
M 259.4 71.5
Q 255.85 69.15 249.4 65.45
L 220.65 48.75
Q 212.85 44.25 209.3 41.5 206.05 38.8 204.4 37.5 201.5 35.3 199 34.4 195.85 33.25 192.7 34.05 189.3 34.85 187.95 37.55 179.4 29.2 175.25 25.8 169.55 21.1 164.8 19.5 159.7 17.8 152.1 18.6 144.25 19.45 137.6 22.35 130.35 25.5 125.45 30.75 125.35 30.85 121.45 35.4 119.05 38.2 117.05 39.65 118.9 37.05 118.4 33.65 117.85 30.25 115.35 28.3 113.15 26.6 110.05 26.5 107.15 26.4 104.35 27.6 100.45 29.25 95.25 34.65 90.5 39.55 88.15 43.45 84.95 48.75 84.9 53.8 84.85 56.25 85.65 58.35 86.55 60.65 88.25 61.95 89.7 63.05 91.85 63.6 93.3 63.95 95.85 64.2
L 105.95 65.05
Q 109.95 65.4 112.2 65.4 115.65 65.4 118.35 64.75 120.1 64.35 123.85 63 127.3 61.75 129.3 61.4 132.15 60.9 134.2 61.55 135.45 62 136.8 63 137.4 63.45 139.1 64.9 145.25 70.25 152.6 73.75 160.1 77.3 168.05 78.55 176.05 79.85 184.2 78.75 192.35 77.7 199.7 74.35 203.6 72.6 204.55 72.3 207.4 71.35 209.6 71.75 211.3 72.05 213.15 73.2 214.05 73.75 216.35 75.5 223.9 81.1 236.75 87.05 241.35 89.25 244.4 90.25 248.75 91.65 252.45 91.7 255.5 91.7 259.25 90.75 261.45 90.15 265.8 88.65 267.95 87.9 269.15 87.1 270.8 85.95 271.15 84.35 271.65 81.85 268.5 78.7 264.75 75.05 259.4 71.5 Z"/>

<path fill="#66CC33" stroke="none" d="
M 180.85 122.05
L 175.1 121.5
Q 158.65 120.05 151.25 120.05 148.15 120.05 146.25 120.3 143.55 120.7 141.55 121.7 139.25 122.85 137.05 125.3 135.85 126.6 133.4 129.95 124.5 142 112.95 152.15 109.5 155.25 107.05 156.15 104.55 157.1 100.45 157 94.1 156.85 93.65 156.9 91.8 157 91.15 156.55 90.4 156.05 90 154.55 89.1 151.45 88.55 149 87.85 146.05 88.35 144.45 88.75 143.15 90.5 141.1
L 101.35 128.8
Q 104.05 125.8 105.15 123.65 106.8 120.5 106.25 117.75 105.7 114.95 103 112.95 100.65 111.2 97.3 110.4 92.95 109.4 88.4 109.95 83.85 110.5 79.9 112.55 76.95 114.2 75.6 114.4 74.7 114.5 72.75 114.3 70.8 114.1 69.85 114.25 68.85 114.45 68.35 114.55 67.45 114.7 66.85 114.55 66.05 114.3 65.35 113.5 65.05 113.2 64.15 111.95 61.45 108.15 57.2 106.3 55.65 105.6 52.85 104.85 49.55 103.95 48.4 103.55 45.45 102.35 43.95 101.85 41.35 100.95 39.35 101.1 36.2 101.35 33.35 104.15 31.35 106.1 29 109.95 23.3 119.45 20.55 125.9 15.8 137.1 14.2 151.1 12.9 162.7 13.65 177.35 15.2 207.4 23.7 232.15 33.25 260.25 51.15 280.35 53.2 282.65 57 286.65 61.2 291 62.9 292.9 66.25 296.5 66.6 296.9 68.8 299.15 70.7 300.55 75.8 304.3 80.8 303.9 85.75 303.45 89.15 298.95 92.45 294.6 92.2 289.4 91.95 284.55 88.9 279.95 86.15 275.8 81.7 272.75 80 271.55 79.65 271.3 78.55 270.4 78.05 269.4 77.6 268.6 77.4 267.3 77.25 265.8 77.1 265.05 76.85 263.95 76.75 263.4 76.6 262.45 76.7 261.75 76.9 260.2 78.95 258.05 83.4 253.65 85.45 251.3 88.95 247.2 90.15 243.45 90.45 242.55 90.95 240.1 91.45 237.95 91.9 236.75 93.15 233.55 96.7 230.4 101.05 227 103.15 225.25 109.75 219.7 115.85 210.15 117.6 207.4 118.05 206.8 119.35 205 120.65 203.85 122.15 202.55 127.15 199.9 131.4 197.7 133.05 195.45 134.6 193.3 135.1 189.95 135.4 187.8 135.3 183.9
L 135 173.7
Q 138.9 171.8 146.85 169.6 155.1 167.25 158.75 165.6 162.15 164.1 165.95 161.55 168.55 159.85 172.6 156.7 181.4 149.95 185.95 144.75 190.8 139.25 191.7 134.2 192.2 131.05 191.1 128.15 189.9 125.05 187.35 123.6 185.3 122.45 180.85 122.05
M 234.95 172.4
Q 234.5 172.4 233.05 172.7 231.85 172.9 231.1 172.8 230.25 172.7 229.25 172.05 228.1 171.25 227.5 170.85 225.6 169.45 223.25 168.7 219.3 167.45 217.05 169.4 215.45 170.85 215.55 173.5 215.65 175.2 216.4 176.75 217.2 178.3 218.55 179.3 219 179.65 219.95 180.3 220.7 180.9 221 181.55 221.45 182.5 221.05 184.3 220.35 187.85 219.05 191.8 217.45 196.65 217.1 198.05 216.6 200.7 216.4 205 216.1 210.3 216.25 213.15 216.45 217.7 217.65 221.1 218.6 223.65 221.15 227.95 223.2 231.35 224.35 232.85 226.3 235.45 228.4 236.9 230.95 238.6 233.9 238.7 237.05 238.85 239.15 237 240.05 236.2 240.95 234.8 241.9 233.1 242.35 232.25 242.9 231.3 246 226.7 248.25 223.3 249.1 220.9 249.45 219.9 249.9 218.15 250.4 216 250.6 215.35 251 214.05 251.75 212.15 252.85 209.55 253.05 209 255.8 201.7 254.15 196.15 253.3 193.35 250.25 188.95
L 243.35 178.65
Q 241.35 175.65 239.9 174.4 237.6 172.25 234.95 172.4 Z"/>

<path fill="#4B6DE6" stroke="none" d="
M 263.1 90.7
Q 262.8 90.9 261.1 92.15 259.95 93 259.05 93.3 257.75 93.75 254.75 93.55 248.05 92.95 244.85 92.35 239.4 91.4 235.4 89.5 232.4 88.1 226.3 83.8 220.6 79.75 217.05 78.35 210.3 75.7 203.45 77.05 200.8 77.55 196.1 79.25 191.1 81.1 188.75 81.6 182.3 83 172.05 81.35 157.05 79.05 147.9 73.65 143.85 71.05 141.75 69.85 138.15 67.7 135.25 67.1 132.35 66.45 128.4 66.85 123.8 67.55 121.5 67.85 108.05 69.85 94.9 66.65 89.5 65.15 86.8 64.45 82.05 63.25 78.55 63.2 72.55 63 64.1 66.1 59.25 67.85 56.15 69.85 52.1 72.5 50.3 76 48.95 78.55 48.8 81.5 48.6 84.5 49.7 87.15 51.1 90.6 55.15 94.4 57.4 96.55 61.95 100.75 63.05 101.95 65.1 104.45 66.95 106.55 68.65 107.6 71.35 109.3 75 109.35 78.25 109.4 81.7 108.15 84.4 107.15 87.7 105.05 89.6 103.9 93.35 101.35 95.05 100.25 96.15 100.3 97.05 100.35 98.5 101.5 106.35 107.75 110.95 116.6 107.1 126.3 100.15 134.15 96.95 137.8 96.5 138.45 94.6 141 94.1 143.35 93.65 145.75 94.55 148.15 95.4 150.5 97.3 152.05 99.2 153.55 101.75 153.85 104.3 154.2 106.5 153.2 108.5 152.3 110.5 150.15 112.75 147.5 113.85 146.2 115.7 144.05 119.1 140.9 123.45 136.85 124.5 135.75 130.9 129.3 132.25 123.25 132.75 121.3 132.8 121.2 133.2 120.05 133.9 119.5 134.75 118.85 137.35 118.75 140.5 118.6 146.35 117.15 152.45 115.55 155.4 115.35 158.65 115.1 162.65 115.7 165.1 116.05 169.75 117.1
L 187.95 121.15
Q 191 121.85 192.15 122.9 193.8 124.3 194.1 127.5 194.65 132.9 190.95 140.3 185.25 151.75 175.5 159.55 165.3 167.8 153.4 169.75 149.05 170.45 148.1 170.7 145.15 171.45 143.45 173 141.3 175 140.75 178.45 140.35 181.35 141.05 184.85 141.9 188.3 141.55 189.85 141.25 191.15 139.65 193.25 135.75 198.55 133.4 200.95 131.7 202.65 127.85 205.85 124.1 208.9 122.3 210.75 120.6 212.4 118 215.65 115.05 219.25 113.8 220.6 110.7 223.9 103.7 229.9 97.7 235.45 95.65 240.55 95.2 241.75 94.35 244.2 93.5 246.3 92.5 247.5 91.6 248.6 89.8 249.8 87.25 251.55 86.85 251.85 83.45 254.6 82.3 259.05 81.15 263.55 82.85 267.55 83.65 269.5 85.55 272.1 88.35 275.9 88.7 276.45 89.6 277.9 92.5 284.3 94.7 289.15 97.05 291.5 100.2 294.65 105.7 296.2 108.65 297.05 115.8 298 119.25 298.45 126.05 299.4 131.95 300.05 136.35 299.9 145.15 299.55 149.6 295.45 150.85 294.3 152.6 291.8 154.6 289 155.5 288 160.75 282.35 170.6 281.65 174.1 281.4 178.95 281.8 181.75 282.05 187.3 282.7 197.35 283.75 199.15 284.05 205.8 285.25 210.05 288.1 211.9 289.35 216.8 294 220.85 297.9 223.95 299.25 232.5 302.95 245.65 295.85 259.4 288.4 271.8 275.85 280.7 266.8 285.65 257.95 288 253.75 291.5 245.35
L 297.1 231.7
Q 302.8 217.75 304.95 209.7 306.85 202.5 307.95 192.85 311.9 158.5 301.85 125.4 298.15 113.15 293.2 105.4 286.55 95.15 277.25 90.95 273.55 89.25 270.05 89.05 266 88.85 263.1 90.7
M 226.35 166.65
Q 228.9 168.05 230.25 168.7 231.8 169.4 236.1 170.9 239.85 172.15 241.9 173.25 245.15 174.95 250.4 179.7 254.9 183.75 256.5 186.8 259.25 192.25 257.3 200.9 256.4 205.05 253.95 211.75 249.45 224.5 246.85 230.35 244.7 235.05 242.85 237.15 241.15 239.1 237.25 241.8 235.8 242.8 234.95 243.2 233.6 243.8 232.45 243.65 231.25 243.55 230 242.65 229.2 242.1 227.9 240.8
L 224.15 237.3
Q 221.9 235.15 220.55 233.6 214.15 226.3 212.65 215.95 211.15 205.9 214.75 196.5 216.65 192.1 217.45 189.85 218.8 185.95 218.55 182.95 218.25 178.75 215.25 175.75 213.4 174.1 212.6 173.15 211.25 171.6 211.4 170.1 211.5 168.7 212.95 167.4 213.3 167.1 215.75 165.45 216.3 165.1 217.4 164.4 218.35 163.85 219.15 163.75 220.45 163.6 222.4 164.55 223.7 165.2 226.35 166.65 Z"/>
</g>

<g id="world_basic_0_Layer0_0_FILL">
<path fill="#143C85" stroke="none" d="
M 87.25 326.1
Q 89.0216796875 327.0244140625 91.75 328.3 90.762890625 327.5154296875 89.8 326.7 82.6396484375 323.3841796875 75.8 319.3 83.55 324.15 87.25 326.1 Z"/>

<path fill="#25456B" stroke="none" d="
M 283 79.1
Q 276.4880859375 71.7853515625 269.8 64.8 263.10546875 57.8025390625 252.55 50.2 241.99921875 42.6505859375 228.55 37.65 224.25 36.1 222.5 34.85 221.3 33.95 219.9 32.4 218.35 30.55 217.55 29.6 211.9 23.1 203.5 19.9 195.1 16.75 186.55 17.9 184.9958984375 18.1072265625 183.8 18.5 183.6951171875 18.3572265625 183.6 18.2 180.456640625 13.006640625 178 10.2 177.7810546875 9.948828125 177.55 9.7 175.1 7.2 171.25 4.7 164.35 0.15 158.2 -0.55 152.1 -1.25 145.3 1.5 140 3.65 133.6 8.25 125.9296875 13.824609375 121.75 18.8 116.394140625 15.8201171875 110.2 15.3 105.862890625 14.9439453125 101.85 15.85 99.7130859375 16.368359375 97.65 17.25 93.95 18.85 90.2 21.9 87.4 24.2 83.75 28 81.15 30.8 80.05 32.4 79 33.95 77.85 36.3 77.15 37.65 75.9 40.35 74.6044921875 42.941015625 74.1 44.35 57.97578125 54.27421875 43.65 68.6 28.75 83.5 18.6 100.35 -3.05 136.35 -3.05 181.3 -3.05 226.25 18.6 262.3 28.75 279.15 43.65 294.05 52.5541015625 302.9330078125 62.15 310.1 68.8119140625 315.1201171875 75.8 319.3 82.6396484375 323.3841796875 89.8 326.7 90.762890625 327.5154296875 91.75 328.3 99.1732421875 331.642578125 107.7 335 107.1181640625 334.796484375 106.6 334.6 113.0580078125 337.133984375 135.55 344.5 136.0515625 344.6900390625 136.5 344.85 136.9853515625 345.176171875 137.45 345.5 145.75 351.2 155.75 353.65 165.75 356.1 175.75 354.85 185.75 353.6 194.8 348.7 201.6552734375 344.950390625 207 339.6 223.265234375 332.9921875 234.85 318.8
L 236.15 318.35
Q 237.4021484375 317.891015625 238.8 317.15 242.85546875 314.9962890625 249.85 309.55 253.1265625 307.00234375 263.8 298.3
L 267.8 295.05
Q 268.1220703125 294.7673828125 268.45 294.5 295.55 272.55 308.15 240.6 320.6 209 318.85 174.9 318.4919921875 146.9171875 307.7 120.3 298.4103515625 97.2849609375 282.75 78.9 289.5640625 86.4248046875 283 79.1
M 255 73.75
Q 261.946875 79.305859375 266.1 85 266.476171875 85.512109375 266.8 85.9 263.66484375 87.6005859375 259.75 88.4 253.7 89.6 246.35 88.65 236.401171875 87.349609375 225.5 79.3 216.6818359375 72.8306640625 210.85 64.75 209.48984375 65.496484375 208.15 66.2
L 208.2 66.2
Q 207.6646484375 66.486328125 207.1 66.75 191.0865234375 75.25546875 182.6 76.9 181.3001953125 77.1578125 180 77.3 169.7056640625 78.7013671875 159.45 74.75 147.85 70.35 140.75 60.9 139.05 58.65 138.4 57.95 138.308203125 57.848828125 138.2 57.75 137.701171875 57.2001953125 137.15 56.75 136.3177734375 56.097265625 135.45 55.75 133.15 54.85 130.05 55.8 128.7 56.25 124.75 58.15 118.2 61.35 110.9 62.4 109.941796875 62.543359375 108.95 62.65 106.268359375 62.9453125 103.55 62.9 101.966015625 62.628125 99.85 62.3 97.772265625 62.0271484375 95.9 61.35 94.0361328125 60.730078125 91.7 59.5 89.3623046875 58.2607421875 88.25 56 87.186328125 53.791796875 87.8 52.05 88.4203125 50.3166015625 88.35 48.9 88.6193359375 48.4111328125 88.85 47.95 90.9578125 43.7685546875 92.2 41.35
L 92.3 41.1
Q 92.4841796875 40.783984375 92.65 40.45
L 92.75 40.2
Q 93.2869140625 39.231640625 93.55 38.7 94.8025390625 36.4416015625 93.2 39.45 94.144140625 37.9599609375 95.3 36.6 97.209765625 34.2701171875 99.6 32.55 100.358984375 32.022265625 101.15 31.55 102.0841796875 30.9919921875 102.95 30.6 103.3861328125 30.3447265625 103.8 30.15 106.45 28.9 110.1 29.15 112.024609375 29.23359375 115.25 29.9 115.13984375 30.2279296875 115 30.55 113.25 34.7 111.9 38.85 110.9 41.85 110.6 43.9 110.25 46.1 111.35 46.75 112.35 47.45 114.2 46.55 118.75 44.45 121.9 40.35 122.45 39.6 123.65 37.8 124.7 36.15 125.4 35.3 126.75 33.65 129.35 31.3 134.65 26.55 138.65 24 144.1 20.5 149.35 19.45 149.448828125 19.42890625 149.55 19.4 151.2611328125 19.055859375 153 18.95 155.24140625 18.81953125 157.5 19.1 158.430859375 19.2197265625 159.35 19.4 162.9103515625 20.105078125 166.1 21.65 167.4314453125 22.338671875 168.7 23.15 172.9 25.9 175.9 30.1 178.9509765625 34.2515625 184.2 42.35 185.2453125 43.9810546875 186.25 45.6 187.2908203125 47.2720703125 189.35 48.45 191.4138671875 49.6341796875 191.35 45.35 191.34453125 41.054296875 190.55 36.55 190.3935546875 35.6978515625 190.2 34.85 190.7904296875 35.02421875 191.4 35.15 193.15 35.5 196.7 36.15 200.45 37.1 203.75 39.4 207 41.65 209.25 44.8 209.9423828125 45.7837890625 211.15 47.55 220.625 50.532421875 234.35 59.35 248.11328125 68.1791015625 255 73.75
M 269.95 97.2
Q 270.10234375 97.403125 270.25 97.6 270.7 98.15 272.85 100.65 285.45 114.85 291.4 136.6 293.95 145.65 295.35 156.55 296.2470703125 163.3359375 296.85 171.9 299.45 192.4 294.75 212.2 286.7 246.25 262.15 271.75 260.3330078125 273.6125 256.65 277.05
L 250 283.2
Q 247.325390625 285.693359375 241.45 289.95 239.859375 291.035546875 233.55 295.3 230.3474609375 291.83515625 226.25 288.9
L 226.2 288.85
Q 220.801171875 284.9861328125 213.85 282 204.2 277.85 187.55 274.4 178.701953125 272.55390625 173.25 272.15 167.7951171875 271.7904296875 161.15 273.35 154.551171875 274.9033203125 150.35 278.25 146.1548828125 281.610546875 148.7 291.65 147.1837890625 292.244921875 140.45 292.75 131.5833984375 293.41875 119.2 292.15 112.2625 291.4390625 104 290.25 103.701953125 290.271484375 102.7 290.2 102.733984375 290.1482421875 102.75 290.1
L 102.75 290.05
Q 102.705078125 290.0671875 102.65 290.05 102.5349609375 290.0408203125 102.4 290
L 102.4 290.05
Q 102.4015625 290.1140625 102.4 290.15 102.345703125 290.1712890625 102.25 290.15
L 102.15 290.15
Q 101.9666015625 290.1578125 101.75 290.15 101.7326171875 290.224609375 101.7 290.3
L 101.75 290.3
Q 101.960546875 290.3267578125 102.15 290.35
L 102.2 290.35
Q 102.1814453125 290.5384765625 102.15 290.75 101.9171875 293.1958984375 101.4 298.1 100.56328125 301.1146484375 99.05 303.5 99.107421875 303.4984375 99.15 303.45 99.24609375 303.3853515625 99.35 303.3 99.6076171875 303.096875 99.85 302.9 99.8947265625 302.9142578125 99.95 302.9
L 99.95 302.9 100 302.95
Q 98.3689453125 303.594140625 100.35 304.2 102.3169921875 304.80546875 111.65 306.05 120.9931640625 307.35078125 131.6 307.9 142.134765625 308.4828125 148.65 308.3 149.401953125 308.2810546875 150.1 308.25 151.39375 308.19296875 152.65 308.1 152.7390625 308.09375 152.8 308.05 156.225 307.8404296875 159.35 307.35 163.165234375 306.76640625 166.55 305.8 167.3994140625 305.5982421875 168.2 305.35 172.5138671875 304.02265625 175.1 301.95 172.916796875 302.337890625 167.5 297.75 162.0880859375 293.227734375 161.55 291.3 161.0037109375 289.4056640625 162.25 288.95 168 286.65 177.8 287.6 194.3 289.35 209.15 296.85 219.0322265625 301.945703125 224.15 308.25
L 208.6 320.7 208.6 312
Q 205.7552734375 318.9787109375 198.1 328.15
L 197.25 329
Q 194.992578125 331.3939453125 192.4 333.25 182.450390625 340.4369140625 168.15 339.85 165.69921875 339.749609375 163.65 339.25 157.5498046875 337.7421875 152.65 335.8 147.746484375 333.8466796875 140.4 329.3 133.1052734375 324.7615234375 129.6 322.5 126.1490234375 320.286328125 124.75 319.3 124.2939453125 319.818359375 124.1 320.95 123.8 322.771875 124.05 324.55 109.552734375 318.3724609375 101.15 313.1 99.33203125 311.991015625 97.8 310.9 95.2578125 309.0900390625 93.5 307.4 94.1546875 308.6619140625 93.65 307.8 93.5712890625 307.5900390625 93.5 307.4
L 93 307.9
Q 93.2388671875 307.670703125 93.45 307.35 93.728515625 307.228125 93.95 307.05 92.0435546875 305.652734375 90 304.35 84.4037109375 300.8169921875 83.5 299.95 83.4048828125 300.0421875 83.3 300.1 81.637109375 298.76953125 80 297.35 76.9953125 294.7458984375 74.15 291.95
L 56.5 275.15
Q 44.81484375 262.978125 36.75 249.25 36.8 249.2 36.8 249.15 33.5642578125 243.71640625 30.9 238.15 27.018359375 230.0408203125 24.35 221.65 21.1349609375 211.7318359375 19.85 199.05 19.8474609375 198.876953125 19.8 198.7 19.7765625 198.19609375 19.75 197.65 19.05 190.060546875 19.05 181.45 19.05 180.830859375 19.05 180.2 19.051171875 180.0841796875 19.05 179.95 19.0513671875 179.8201171875 19.05 179.7 19.1224609375 173.78125 19.6 168.05 21.4904296875 147.241015625 29.2 128.85 29.1599609375 128.945703125 29.1 129 29.1845703125 128.8826171875 29.25 128.75 34.3146484375 118.773828125 37.6 112.35 38.5 110.8 39.5 109.3
L 39.5 109.35
Q 40.33828125 107.8341796875 41.45 106.1
L 41.5 106.1
Q 41.18984375 107.1625 41.6 106.1 41.7931640625 105.7841796875 42.25 104.35 42.74921875 102.9630859375 47.1 97.55 51.4935546875 92.1857421875 52.25 90.4 53.071484375 88.6685546875 54.65 88.6 58.612890625 81.4837890625 77.85 66.5 79.42578125 68.13046875 80.9 69.2 81.1125 69.325 81.3 69.45 84.15 71.4 88.1 72.6 90.6029296875 73.3509765625 94.05 73.9 94.729296875 74.0005859375 95.45 74.1 98.82109375 74.645703125 101.8 74.75 103.4931640625 74.8537109375 105.05 74.8 108.9 74.75 116.6 73.55 121.1 72.85 123.3 72.4 127 71.6 129.8 70.45 131.2990234375 69.8662109375 132.5 69.15 138.8470703125 76.5412109375 147.15 81.55 156.6 87.25 167 88.85 177.7 90.45 188.15 87.4 198.9 84.25 207.4 78.65 211.7 86.5 222.1 92.65 231.6 98.25 243.4 100 254.1 101.6 263.5 99.35 266.9552734375 98.51484375 269.95 97.2 Z"/>

<path fill="#A8AFC8" stroke="none" d="
M 93.5 307.4
Q 93.5712890625 307.5900390625 93.65 307.8 94.1546875 308.6619140625 93.5 307.4
M 157.4 318.15
Q 153.956640625 313.878515625 152.8 308.05 152.7390625 308.09375 152.65 308.1 151.39375 308.19296875 150.1 308.25 149.401953125 308.2810546875 148.65 308.3 142.134765625 308.4828125 131.6 307.9 120.9931640625 307.35078125 111.65 306.05 102.3169921875 304.80546875 100.35 304.2 98.3689453125 303.594140625 100 302.95
L 99.95 302.9 99.95 302.9
Q 99.8947265625 302.9142578125 99.85 302.9 99.6076171875 303.096875 99.35 303.3 99.24609375 303.3853515625 99.15 303.45 99.107421875 303.4984375 99.05 303.5 96.6529296875 305.4810546875 93.95 307.05 93.728515625 307.228125 93.45 307.35 93.2388671875 307.670703125 93 307.9
L 93.5 307.4
Q 95.2578125 309.0900390625 97.8 310.9 99.33203125 311.991015625 101.15 313.1 109.552734375 318.3724609375 124.05 324.55 123.8 322.771875 124.1 320.95 124.2939453125 319.818359375 124.75 319.3 126.1490234375 320.286328125 129.6 322.5 133.1052734375 324.7615234375 140.4 329.3 147.746484375 333.8466796875 152.65 335.8 157.5498046875 337.7421875 163.65 339.25 165.69921875 339.749609375 168.15 339.85 182.450390625 340.4369140625 192.4 333.25 190.45859375 333.41328125 188.5 333.4 180.55 333.35 173.9 330.35 169.65 328.45 163.6 323.9 159.15 320.4 157.4 318.15
M 188.65 69.4
Q 180.3 70.2 173.7 68.65 165.3 66.65 158.6 60.8 151.9009765625 54.9478515625 148.9 43.15 145.9470703125 31.4060546875 153 18.95 151.2611328125 19.055859375 149.55 19.4 149.448828125 19.42890625 149.35 19.45 144.1 20.5 138.65 24 134.65 26.55 129.35 31.3 126.75 33.65 125.4 35.3 124.7 36.15 123.65 37.8 122.45 39.6 121.9 40.35 118.75 44.45 114.2 46.55 112.35 47.45 111.35 46.75 110.25 46.1 110.6 43.9 110.9 41.85 111.9 38.85 113.25 34.7 115 30.55 115.13984375 30.2279296875 115.25 29.9 112.024609375 29.23359375 110.1 29.15 106.45 28.9 103.8 30.15 103.3861328125 30.3447265625 102.95 30.6 102.0841796875 30.9919921875 101.15 31.55 100.358984375 32.022265625 99.6 32.55 97.209765625 34.2701171875 95.3 36.6 94.144140625 37.9599609375 93.2 39.45 94.8025390625 36.4416015625 93.55 38.7 93.2869140625 39.231640625 92.75 40.2
L 92.65 40.45
Q 92.4841796875 40.783984375 92.3 41.1
L 92.2 41.35
Q 90.9578125 43.7685546875 88.85 47.95 88.6193359375 48.4111328125 88.35 48.9 88.4203125 50.3166015625 87.8 52.05 87.186328125 53.791796875 88.25 56 89.3623046875 58.2607421875 91.7 59.5 94.0361328125 60.730078125 95.9 61.35 97.772265625 62.0271484375 99.85 62.3 101.966015625 62.628125 103.55 62.9 106.268359375 62.9453125 108.95 62.65 109.941796875 62.543359375 110.9 62.4 118.2 61.35 124.75 58.15 128.7 56.25 130.05 55.8 133.15 54.85 135.45 55.75 136.3177734375 56.097265625 137.15 56.75 137.701171875 57.2001953125 138.2 57.75 138.308203125 57.848828125 138.4 57.95 139.05 58.65 140.75 60.9 147.85 70.35 159.45 74.75 169.7056640625 78.7013671875 180 77.3 181.3001953125 77.1578125 182.6 76.9 191.0865234375 75.25546875 207.1 66.75 207.6646484375 66.486328125 208.2 66.2
L 208.15 66.2
Q 206.576171875 66.0779296875 203.6 66.75 194.2 68.85 188.65 69.4 Z"/>

<path fill="#B9CCF0" stroke="none" d="
M 152.8 308.05
Q 153.956640625 313.878515625 157.4 318.15 159.15 320.4 163.6 323.9 169.65 328.45 173.9 330.35 180.55 333.35 188.5 333.4 190.45859375 333.41328125 192.4 333.25 194.992578125 331.3939453125 197.25 329
L 198.1 328.15
Q 205.7552734375 318.9787109375 208.6 312
L 208.6 320.7 224.15 308.25
Q 219.0322265625 301.945703125 209.15 296.85 194.3 289.35 177.8 287.6 168 286.65 162.25 288.95 161.0037109375 289.4056640625 161.55 291.3 162.0880859375 293.227734375 167.5 297.75 172.916796875 302.337890625 175.1 301.95 172.5138671875 304.02265625 168.2 305.35 167.3994140625 305.5982421875 166.55 305.8 163.165234375 306.76640625 159.35 307.35 156.225 307.8404296875 152.8 308.05
M 266.1 85
Q 261.946875 79.305859375 255 73.75 248.11328125 68.1791015625 234.35 59.35 220.625 50.532421875 211.15 47.55 209.9423828125 45.7837890625 209.25 44.8 207 41.65 203.75 39.4 200.45 37.1 196.7 36.15 193.15 35.5 191.4 35.15 190.7904296875 35.02421875 190.2 34.85 190.3935546875 35.6978515625 190.55 36.55 191.34453125 41.054296875 191.35 45.35 191.4138671875 49.6341796875 189.35 48.45 187.2908203125 47.2720703125 186.25 45.6 185.2453125 43.9810546875 184.2 42.35 178.9509765625 34.2515625 175.9 30.1 172.9 25.9 168.7 23.15 167.4314453125 22.338671875 166.1 21.65 162.9103515625 20.105078125 159.35 19.4 158.430859375 19.2197265625 157.5 19.1 155.24140625 18.81953125 153 18.95 145.9470703125 31.4060546875 148.9 43.15 151.9009765625 54.9478515625 158.6 60.8 165.3 66.65 173.7 68.65 180.3 70.2 188.65 69.4 194.2 68.85 203.6 66.75 206.576171875 66.0779296875 208.15 66.2 209.48984375 65.496484375 210.85 64.75 216.6818359375 72.8306640625 225.5 79.3 236.401171875 87.349609375 246.35 88.65 253.7 89.6 259.75 88.4 263.66484375 87.6005859375 266.8 85.9 266.476171875 85.512109375 266.1 85 Z"/>

<path fill="#125002" stroke="none" d="
M 102.75 290.05
L 102.75 290.1
Q 102.733984375 290.1482421875 102.7 290.2 103.701953125 290.271484375 104 290.25 104.705078125 290.302734375 102.75 290.05
M 196.1 111.35
Q 192.7 107.95 185 107.2 178.3 106.5 167.45 107 153.5 107.65 149.85 107.6 142 107.5 139.25 107.85 133.35 108.6 129.95 111.6 128.2 113.2 126.65 115.9 125.9 117.15 124.2 120.8 119.15 131.3 111.8 140.85 105.35 149.2 99.45 148.25
L 98.65 143.05
Q 103.1 141.8 106.75 139.3 110.55 136.6 112.85 132.95 115.25 129.1 115.7 124.55 115.8326171875 123.1787109375 115.75 121.85 116.0828125 120.5466796875 116.25 119.2 116.75 115.1 115.8 111.2 114.75 107.15 112.3 104.1 108.8 99.8 102.95 98.05 98.741796875 96.798828125 94.35 97.1 93.655859375 97.1109375 92.95 97.15 91.96953125 97.1947265625 91 97.3 90.944140625 97.305859375 90.9 97.3 84.2537109375 98.02578125 78.75 101.1 76.6814453125 102.2392578125 74.35 104 72.476171875 101.2408203125 71.1 99.25 68.225390625 95.1474609375 67.55 94.5 65.70390625 92.7333984375 63.65 91.25
L 54.65 88.6
Q 53.071484375 88.6685546875 52.25 90.4 51.4935546875 92.1857421875 47.1 97.55 42.74921875 102.9630859375 42.25 104.35 41.7931640625 105.7841796875 41.6 106.1 42.171875 106.152734375 42.85 106.15 43.8251953125 106.1970703125 43.95 106.2 45.65 106.4 48.2 107.2 48.87109375 107.3830078125 49.5 107.55 50.6974609375 107.93671875 51.7 108.3 52.7609375 108.7115234375 53.6 109.1 54.579296875 109.570703125 55.3 110.05 55.371484375 110.08828125 55.4 110.1
L 55.7 110.35
Q 55.84375 110.5001953125 55.95 110.6 57.2001953125 111.727734375 58.1 112.95 58.231640625 113.155078125 58.35 113.35 59.0279296875 114.326171875 59.5 115.4 60.15 116.95 61.05 120.3 62 123.15 63.55 124.45 65.4 126 68.2 125.8 70.7 125.7 73.05 124.3 74.75 123.3 77 121.2 80.15 118.25 80.8 117.75 83.56171875 115.5158203125 86.85 114.15 87.6904296875 114.0986328125 88.6 114.05 88.8849609375 114.057421875 89.15 114.05 89.1955078125 114.0513671875 89.25 114.05 93.650390625 113.9833984375 97.15 114.6 97.18125 114.4943359375 97.15 114.4 98.149609375 114.7619140625 101.75 117.05 105.4095703125 119.3978515625 103.2 124.15 100.984765625 128.8966796875 96.65 130.75
L 90.05 133.7
Q 88.4615234375 134.38359375 87.25 135.15 86.327734375 135.7533203125 85.6 136.4 84.905078125 137.0166015625 84.4 137.7 82.55 140.2 82.3 144.05 82.1 146.6 82.7 151.1 82.9404296875 152.7833984375 83.2 154.15 83.6005859375 156.181640625 84.05 157.5 85.2 160.95 87.4 162.75 88.6041015625 163.71640625 90.05 164.25 93.1515625 165.411328125 97.4 164.75 97.5484375 164.7255859375 97.7 164.7 104.8 163.6 111.95 158.35 117.05 154.6 123.65 147.35 132.75 137.6 137.2 130.35 138.6 128 139.3 127.1 140.6 125.35 142.1 124.55 143.95 123.6 147.8 123.5 164.9 122.9 182 123.05 184.45 123.05 185.5 123.95 187.05 125.3 186.3 128.9 184.45 137.7 179.55 145.45 178.8720703125 146.511328125 178.15 147.5 177.518359375 148.107421875 174.7 151 171.932421875 153.898828125 166.15 157.75 160.3666015625 161.603515625 141.1 167.75 127.969140625 171.97734375 124.05 173 120.1841796875 174.0119140625 126.05 178.45 131.95625 182.9478515625 132.7 185.55 133.4994140625 188.1494140625 133.3 189.95 133.05 192.1 131.2 193.9 130.9990234375 194.1009765625 130.75 194.3 129.338671875 195.566796875 127.25 196.35 125.95 196.8 122.8 197.6 119.9 198.3 118.35 198.95 116.43828125 199.7810546875 115.1 201.15 114.8669921875 201.3736328125 114.65 201.6 113.55 202.75 112.75 204.75 112.3 205.95 111.55 208.35 111.1869140625 209.4697265625 110.7 210.55 108.953125 214.8078125 105.8 218.4 101.8 222.9 96.5 225.35 91.5 227.7 89.95 228.9 86.6 231.35 86.85 234.45 86.95 235.65 87.9 237.7 88.9 239.85 89.05 240.9 89.3 242.9 88.1 245.1 87.3 246.6 85.45 248.8 83.116796875 251.513671875 81.1 253.5 79.15078125 255.443359375 77.5 256.7 73.176171875 260.0091796875 68.85 260.45 68.276171875 260.53828125 67.7 260.55 67.108984375 260.5703125 66.25 260.55 67.171875 263.0654296875 68.15 265.7 68.394921875 266.4021484375 68.65 267.1 69.48203125 269.3685546875 70.35 271.75 71.6474609375 275.311328125 73 279.1 73.2369140625 279.7095703125 73.45 280.3 73.7974609375 280.37734375 74.15 280.45 74.2958984375 280.50703125 74.45 280.55 79.996875 281.9236328125 85.15 284.95 89.15 287.35 89.6 290 89.80859375 291.341015625 89.1 293 88.6685546875 294.1275390625 87.8 295.4 85.92890625 297.9986328125 83.5 299.95 84.4037109375 300.8169921875 90 304.35 92.0435546875 305.652734375 93.95 307.05 96.6529296875 305.4810546875 99.05 303.5 100.56328125 301.1146484375 101.4 298.1 101.9171875 293.1958984375 102.15 290.75 102.1814453125 290.5384765625 102.2 290.35
L 102.15 290.35
Q 101.960546875 290.3267578125 101.75 290.3
L 101.7 290.3
Q 101.71015625 290.222265625 101.7 290.15
L 101.75 290.15
Q 101.9666015625 290.1578125 102.15 290.15
L 102.25 290.15
Q 102.345703125 290.1712890625 102.4 290.15 102.4015625 290.1140625 102.4 290.05
L 102.4 290
Q 102.350390625 290.01953125 102.3 290
L 102.25 290
Q 102.216796875 289.996484375 102.15 290 101.9720703125 289.977734375 101.75 289.95 101.88671875 281.84453125 100.8 279.85 98.6 275.95 95.9 273.65 94.25 272.25 91.6 270.9 88.55 269.4 87 268.65 85.60078125 267.934375 84.45 267.35 84.7193359375 267.1837890625 84.95 267 85.1056640625 266.905078125 85.2 266.8 87.48046875 265.1482421875 89.55 263.3 91.3283203125 261.7330078125 92.95 260 96.00625 256.896875 98.6 253.3 105.15 244.35 103.25 237.45 111.05 234.6 117.2 228.6 119.45078125 226.367578125 121.25 223.9 124.40703125 219.671875 126.3 214.75 127.15 212.5 127.3 212.2 127.6033203125 211.5234375 127.95 210.95 139.9880859375 207.6865234375 145.45 199.85 148.8 195.1 148.85 189.2 148.85 183 145.05 179.05 154.35 178.2 163.1 174.4 171.847265625 170.5982421875 180.45 165.15 189.1033203125 159.7638671875 192 154.6 194.8966796875 149.4244140625 196.7 144.1 198.506640625 138.817578125 199.95 133.75 201.4435546875 128.73828125 200.55 123.45 199.7021484375 118.154296875 198.95 116.1 197.9 113.2 196.1 111.35
M 208.4 166.3
Q 207.55 167.85 207.15 169.6 206.35 173.1 207.3 176.75 208.25 180.4 210.7 183.1 210.95 183.35 211.1 183.6 211.2 184.65 210.35 186.85 210.15 187.3 210 187.8 207.75 192.4 206.9 197.6 206.4 200.7 206.45 203.75 205.9 210.85 207.25 217.7 208.75 225.5 212.55 232.45 216.45 239.55 222.2 244.8 226.25 248.5 230.1 250 235.15 251.95 239.45 250.2 241.75 249.35 243.95 247.25 250.2125 241.384375 253.95 234.45 257.170703125 228.5599609375 255.75 230.7 258.70703125 225.9423828125 260.65 221.65 266.35 209.15 265.45 198.3 265 192.75 262.85 187.35 261.45 184 259.65 181.5 257.9 179 253.55 174.75 249.45 170.65 243.2 165.7 236.95 160.75 231.05 158.7 225.1 156.6 220.15 157.45 215.2 158.25 211.75 161.45 209.55 163.55 208.4 166.3
M 216.9 173.2
Q 216.8 172.65 216.8 172.15 217.2 171.4 217.9 170.8 219.35 169.6 221.25 169.5 223.9 169.35 228.05 171.65 232.103125 173.9048828125 235.4 176.15 238.7 178.387109375 240.5 179.9 242.3498046875 181.4625 245.55 184.1 248.796484375 186.7947265625 251.7 194.1 254.6 201.35 253 205.85 251.4 210.3 248 218.55 245.2 225.2 242.5 229.7
L 239.35 234.3
Q 237.75 236.5 237.4 236.7 236.7 236.9 235.1 236.6 233.45 236.25 229.7 233.15 225.9 230 224.2 227.25 222.45 224.5 220.05 219.7 217.6 214.85 217.7 208.95 217.7 207.25 217.8 204.9 218.1 198.9 218.7 195.8 219.3 192.75 220.3 190.35 221.15 188.35 223.95 181.35 223.15 179.8 221.2 178.25 219.2 176.7 218.55 176.05 217.2 174.65 216.9 173.2 Z"/>

<path fill="#4D7FDD" stroke="none" d="
M 101.7 290.3
Q 101.7326171875 290.224609375 101.75 290.15
L 101.7 290.15
Q 101.71015625 290.222265625 101.7 290.3 Z"/>

<path fill="#3A55B4" stroke="none" d="
M 117.2 228.6
Q 111.05 234.6 103.25 237.45 105.15 244.35 98.6 253.3 96.00625 256.896875 92.95 260 91.3283203125 261.7330078125 89.55 263.3 87.48046875 265.1482421875 85.2 266.8 85.1056640625 266.905078125 84.95 267 84.7193359375 267.1837890625 84.45 267.35 85.60078125 267.934375 87 268.65 88.55 269.4 91.6 270.9 94.25 272.25 95.9 273.65 98.6 275.95 100.8 279.85 101.88671875 281.84453125 101.75 289.95 101.9720703125 289.977734375 102.15 290 102.216796875 289.996484375 102.25 290
L 102.3 290
Q 102.350390625 290.01953125 102.4 290 102.5349609375 290.0408203125 102.65 290.05 102.705078125 290.0671875 102.75 290.05 104.705078125 290.302734375 104 290.25 112.2625 291.4390625 119.2 292.15 131.5833984375 293.41875 140.45 292.75 147.1837890625 292.244921875 148.7 291.65 146.1548828125 281.610546875 150.35 278.25 154.551171875 274.9033203125 161.15 273.35 167.7951171875 271.7904296875 173.25 272.15 178.701953125 272.55390625 187.55 274.4 204.2 277.85 213.85 282 220.801171875 284.9861328125 226.2 288.85
L 226.25 288.9
Q 234.2337890625 284.04765625 237.1 281.65 239.9640625 279.25859375 242.95 276.5 245.9431640625 273.730859375 254.05 263.45 251.8208984375 263.8703125 249.1 264.3 238.502734375 266.0984375 237.3 266.55 236.6142578125 266.82421875 232.35 266.8 235.750390625 266.7048828125 236.05 266.35 219.264453125 268.4185546875 201.25 266 152.856640625 259.451953125 121.25 223.9 119.45078125 226.367578125 117.2 228.6
M 88.1 72.6
Q 84.15 71.4 81.3 69.45 81.1125 69.325 80.9 69.2 72.1107421875 77.702734375 65.55 88.2 64.6 89.7 63.65 91.25 65.70390625 92.7333984375 67.55 94.5 68.225390625 95.1474609375 71.1 99.25 72.476171875 101.2408203125 74.35 104 76.6814453125 102.2392578125 78.75 101.1 84.2537109375 98.02578125 90.9 97.3 90.944140625 97.305859375 91 97.3 91.96953125 97.1947265625 92.95 97.15 96.3724609375 85.3755859375 101.8 74.75 98.82109375 74.645703125 95.45 74.1 94.729296875 74.0005859375 94.05 73.9 90.6029296875 73.3509765625 88.1 72.6 Z"/>

<path fill="#66CC33" stroke="none" d="
M 89.25 114.05
Q 89.1955078125 114.0513671875 89.15 114.05 88.8205078125 116.03671875 88.55 118.05 87.374609375 126.74375 87.25 135.15 88.4615234375 134.38359375 90.05 133.7
L 96.65 130.75
Q 100.984765625 128.8966796875 103.2 124.15 105.4095703125 119.3978515625 101.75 117.05 98.149609375 114.7619140625 97.15 114.4 97.18125 114.4943359375 97.15 114.6 93.650390625 113.9833984375 89.25 114.05
M 42.85 106.15
Q 42.171875 106.152734375 41.6 106.1 41.18984375 107.1625 41.5 106.1
L 41.45 106.1
Q 40.33828125 107.8341796875 39.5 109.35
L 39.5 109.3
Q 38.5 110.8 37.6 112.35 34.3146484375 118.773828125 29.25 128.75 29.1845703125 128.8826171875 29.1 129 29.1599609375 128.945703125 29.2 128.85 21.4904296875 147.241015625 19.6 168.05 19.1224609375 173.78125 19.05 179.7 19.0513671875 179.8201171875 19.05 179.95 19.051171875 180.0841796875 19.05 180.2 19.05 180.830859375 19.05 181.45 19.05 190.060546875 19.75 197.65 19.7765625 198.19609375 19.8 198.7 19.8474609375 198.876953125 19.85 199.05 21.1349609375 211.7318359375 24.35 221.65 27.018359375 230.0408203125 30.9 238.15 33.5642578125 243.71640625 36.8 249.15 36.8 249.2 36.75 249.25 44.81484375 262.978125 56.5 275.15
L 74.15 291.95
Q 76.9953125 294.7458984375 80 297.35 81.637109375 298.76953125 83.3 300.1 83.4048828125 300.0421875 83.5 299.95 85.92890625 297.9986328125 87.8 295.4 88.6685546875 294.1275390625 89.1 293 89.80859375 291.341015625 89.6 290 89.15 287.35 85.15 284.95 79.996875 281.9236328125 74.45 280.55 74.2958984375 280.50703125 74.15 280.45 73.7974609375 280.37734375 73.45 280.3 73.2369140625 279.7095703125 73 279.1 71.6474609375 275.311328125 70.35 271.75 66.29296875 268.020703125 62.45 263.3 56.35 255.85 49.3 243.8 43.85 234.6 41 228.05 35.55 215.6 33.55 201.1 31.7 187.6 32.95 173.1 35.1 148.55 46.7 118.85 49.292578125 112.368359375 51.7 108.3 50.6974609375 107.93671875 49.5 107.55 48.87109375 107.3830078125 48.2 107.2 45.65 106.4 43.95 106.2 43.8251953125 106.1970703125 42.85 106.15
M 178.15 147.5
Q 178.8720703125 146.511328125 179.55 145.45 184.45 137.7 186.3 128.9 187.05 125.3 185.5 123.95 184.45 123.05 182 123.05 164.9 122.9 147.8 123.5 143.95 123.6 142.1 124.55 140.6 125.35 139.3 127.1 138.6 128 137.2 130.35 132.75 137.6 123.65 147.35 117.05 154.6 111.95 158.35 104.8 163.6 97.7 164.7 97.5484375 164.7255859375 97.4 164.75 93.1515625 165.411328125 90.05 164.25 95.4263671875 188.7251953125 110.7 210.55 111.1869140625 209.4697265625 111.55 208.35 112.3 205.95 112.75 204.75 113.55 202.75 114.65 201.6 114.8669921875 201.3736328125 115.1 201.15 116.43828125 199.7810546875 118.35 198.95 119.9 198.3 122.8 197.6 125.95 196.8 127.25 196.35 129.338671875 195.566796875 130.75 194.3 130.9990234375 194.1009765625 131.2 193.9 133.05 192.1 133.3 189.95 133.4994140625 188.1494140625 132.7 185.55 131.95625 182.9478515625 126.05 178.45 120.1841796875 174.0119140625 124.05 173 127.969140625 171.97734375 141.1 167.75 160.3666015625 161.603515625 166.15 157.75 171.932421875 153.898828125 174.7 151 177.518359375 148.107421875 178.15 147.5
M 216.8 172.15
Q 216.8 172.65 216.9 173.2 217.2 174.65 218.55 176.05 219.2 176.7 221.2 178.25 223.15 179.8 223.95 181.35 221.15 188.35 220.3 190.35 219.3 192.75 218.7 195.8 218.1 198.9 217.8 204.9 217.7 207.25 217.7 208.95 217.6 214.85 220.05 219.7 222.45 224.5 224.2 227.25 225.9 230 229.7 233.15 233.45 236.25 235.1 236.6 236.7 236.9 237.4 236.7 237.75 236.5 239.35 234.3
L 242.5 229.7
Q 245.2 225.2 248 218.55 251.4 210.3 253 205.85 254.6 201.35 251.7 194.1 248.796484375 186.7947265625 245.55 184.1 242.3498046875 181.4625 240.5 179.9 238.7 178.387109375 235.4 176.15 232.103125 173.9048828125 228.05 171.65 223.9 169.35 221.25 169.5 219.35 169.6 217.9 170.8 217.2 171.4 216.8 172.15 Z"/>

<path fill="#339819" stroke="none" d="
M 80.8 117.75
Q 80.15 118.25 77 121.2 74.75 123.3 73.05 124.3 70.7 125.7 68.2 125.8 65.4 126 63.55 124.45 62 123.15 61.05 120.3 60.15 116.95 59.5 115.4 59.0279296875 114.326171875 58.35 113.35 58.231640625 113.155078125 58.1 112.95 57.2001953125 111.727734375 55.95 110.6 55.84375 110.5001953125 55.7 110.35
L 55.4 110.1
Q 55.371484375 110.08828125 55.3 110.05 54.579296875 109.570703125 53.6 109.1 52.7609375 108.7115234375 51.7 108.3 49.292578125 112.368359375 46.7 118.85 35.1 148.55 32.95 173.1 31.7 187.6 33.55 201.1 35.55 215.6 41 228.05 43.85 234.6 49.3 243.8 56.35 255.85 62.45 263.3 66.29296875 268.020703125 70.35 271.75 69.48203125 269.3685546875 68.65 267.1 68.394921875 266.4021484375 68.15 265.7 67.171875 263.0654296875 66.25 260.55 67.108984375 260.5703125 67.7 260.55 68.276171875 260.53828125 68.85 260.45 73.176171875 260.0091796875 77.5 256.7 79.15078125 255.443359375 81.1 253.5 83.116796875 251.513671875 85.45 248.8 87.3 246.6 88.1 245.1 89.3 242.9 89.05 240.9 88.9 239.85 87.9 237.7 86.95 235.65 86.85 234.45 86.6 231.35 89.95 228.9 91.5 227.7 96.5 225.35 101.8 222.9 105.8 218.4 108.953125 214.8078125 110.7 210.55 95.4263671875 188.7251953125 90.05 164.25 88.6041015625 163.71640625 87.4 162.75 85.2 160.95 84.05 157.5 83.6005859375 156.181640625 83.2 154.15 82.9404296875 152.7833984375 82.7 151.1 82.1 146.6 82.3 144.05 82.55 140.2 84.4 137.7 84.905078125 137.0166015625 85.6 136.4 86.327734375 135.7533203125 87.25 135.15 87.374609375 126.74375 88.55 118.05 88.8205078125 116.03671875 89.15 114.05 88.8849609375 114.057421875 88.6 114.05 87.6904296875 114.0986328125 86.85 114.15 83.56171875 115.5158203125 80.8 117.75 Z"/>

<path fill="#4B6DE6" stroke="none" d="
M 77.85 66.5
Q 58.612890625 81.4837890625 54.65 88.6
L 63.65 91.25
Q 64.6 89.7 65.55 88.2 72.1107421875 77.702734375 80.9 69.2 79.42578125 68.13046875 77.85 66.5
M 270.25 97.6
Q 270.10234375 97.403125 269.95 97.2 266.9552734375 98.51484375 263.5 99.35 254.1 101.6 243.4 100 231.6 98.25 222.1 92.65 211.7 86.5 207.4 78.65 198.9 84.25 188.15 87.4 177.7 90.45 167 88.85 156.6 87.25 147.15 81.55 138.8470703125 76.5412109375 132.5 69.15 131.2990234375 69.8662109375 129.8 70.45 127 71.6 123.3 72.4 121.1 72.85 116.6 73.55 108.9 74.75 105.05 74.8 103.4931640625 74.8537109375 101.8 74.75 96.3724609375 85.3755859375 92.95 97.15 93.655859375 97.1109375 94.35 97.1 98.741796875 96.798828125 102.95 98.05 108.8 99.8 112.3 104.1 114.75 107.15 115.8 111.2 116.75 115.1 116.25 119.2 116.0828125 120.5466796875 115.75 121.85 115.8326171875 123.1787109375 115.7 124.55 115.25 129.1 112.85 132.95 110.55 136.6 106.75 139.3 103.1 141.8 98.65 143.05
L 99.45 148.25
Q 105.35 149.2 111.8 140.85 119.15 131.3 124.2 120.8 125.9 117.15 126.65 115.9 128.2 113.2 129.95 111.6 133.35 108.6 139.25 107.85 142 107.5 149.85 107.6 153.5 107.65 167.45 107 178.3 106.5 185 107.2 192.7 107.95 196.1 111.35 197.9 113.2 198.95 116.1 199.7021484375 118.154296875 200.55 123.45 201.4435546875 128.73828125 199.95 133.75 198.506640625 138.817578125 196.7 144.1 194.8966796875 149.4244140625 192 154.6 189.1033203125 159.7638671875 180.45 165.15 171.847265625 170.5982421875 163.1 174.4 154.35 178.2 145.05 179.05 148.85 183 148.85 189.2 148.8 195.1 145.45 199.85 139.9880859375 207.6865234375 127.95 210.95 127.6033203125 211.5234375 127.3 212.2 127.15 212.5 126.3 214.75 124.40703125 219.671875 121.25 223.9 152.856640625 259.451953125 201.25 266 219.264453125 268.4185546875 236.05 266.35 235.750390625 266.7048828125 232.35 266.8 236.6142578125 266.82421875 237.3 266.55 238.502734375 266.0984375 249.1 264.3 251.8208984375 263.8703125 254.05 263.45 245.9431640625 273.730859375 242.95 276.5 239.9640625 279.25859375 237.1 281.65 234.2337890625 284.04765625 226.25 288.9 230.3474609375 291.83515625 233.55 295.3 239.859375 291.035546875 241.45 289.95 247.325390625 285.693359375 250 283.2
L 256.65 277.05
Q 260.3330078125 273.6125 262.15 271.75 286.7 246.25 294.75 212.2 299.45 192.4 296.85 171.9 296.2470703125 163.3359375 295.35 156.55 293.95 145.65 291.4 136.6 285.45 114.85 272.85 100.65 270.7 98.15 270.25 97.6
M 207.15 169.6
Q 207.55 167.85 208.4 166.3 209.55 163.55 211.75 161.45 215.2 158.25 220.15 157.45 225.1 156.6 231.05 158.7 236.95 160.75 243.2 165.7 249.45 170.65 253.55 174.75 257.9 179 259.65 181.5 261.45 184 262.85 187.35 265 192.75 265.45 198.3 266.35 209.15 260.65 221.65 258.70703125 225.9423828125 255.75 230.7 257.170703125 228.5599609375 253.95 234.45 250.2125 241.384375 243.95 247.25 241.75 249.35 239.45 250.2 235.15 251.95 230.1 250 226.25 248.5 222.2 244.8 216.45 239.55 212.55 232.45 208.75 225.5 207.25 217.7 205.9 210.85 206.45 203.75 206.4 200.7 206.9 197.6 207.75 192.4 210 187.8 210.15 187.3 210.35 186.85 211.2 184.65 211.1 183.6 210.95 183.35 210.7 183.1 208.25 180.4 207.3 176.75 206.35 173.1 207.15 169.6 Z"/>
</g>
</defs>

<g transform="matrix( 0.2159423828125, -0.0291595458984375, 0.0291595458984375, 0.2159423828125, 0.9,6.45) ">
<g transform="matrix( 1, 0, 0, 1, 0,0) ">
<use xlink:href="#world_basic_0_Layer1_0_FILL"/>
</g>

<g transform="matrix( 1, 0, 0, 1, 0,0) ">
<use xlink:href="#world_basic_0_Layer0_0_FILL"/>
</g>
</g>
</svg>
