
<svg xmlns="http://www.w3.org/2000/svg" version="1.1" xmlns:xlink="http://www.w3.org/1999/xlink" preserveAspectRatio="none" x="0px" y="0px" width="80px" height="80px" viewBox="0 0 80 80">
<defs>
<g id="games_basic_0_Layer1_0_FILL">
<path fill="#4590DC" stroke="none" d="
M 352.5 138.6
Q 349.3 133.05 347.65 130.25 344.8 125.35 342.6 121.95 335 109.95 320.9 92.75 311.6 81.45 304.3 73.4 300.6 69.45 298.2 67.2 294.75 63.95 291.45 61.8 288.25 59.75 283.9 57.85 281.3 56.7 275.95 54.7 269.9 52.4 266.85 51.5 261.75 49.9 257.5 49.35 249.05 48.85 244.9 48.4 237.6 47.55 233.45 44.45 231 42.65 228.45 39.05 225.7 34.9 224.15 32.95 212.75 18.5 184.5 15.35 171.4 13.85 162.3 15.4 158.4 16.05 153.6 17.6 150.95 18.45 145.15 20.55 131.35 25.75 123.55 29.9 112.1 35.95 104.9 43.65 100.5 48.4 94.5 57.75 87.65 68.5 84.65 72.25 81.65 76 76.4 81.2 68.6 89 67.75 89.85 51.15 107.15 41.3 129.25 36.25 140.6 34.35 150.55 33.6 154.25 33 159.55 32.65 162.55 32 168.55 31 177.25 28.55 191.4 25.5 208.95 24.75 214.15 24.6 215.3 22.9 227.8 21.8 236.05 20.9 241.4 19.8 247.8 17.25 260.5 15.25 271.7 15.15 279.75 15.05 290.25 18.05 299 21.45 308.9 28.25 315.05 40.4 325.95 64.65 325.85 84.85 325.75 98.65 319.05 115.6 310.85 127.1 291.85 128.5 289.5 132 283.05 135.05 277.45 137.05 274.3 144 263.65 154.95 255.3 165.15 247.5 177.8 242.4 198.85 233.9 229.15 232.35 242.55 231.7 252.25 232.95 264.75 234.6 274 239.6 279.05 242.35 286.15 247.95 292.4 252.75 298.95 258.3 304.15 262.65 306.2 264.3 310.35 267.55 313.9 269.65 321.4 274.05 331.45 276.6 342.75 279.45 351.3 278.3 358.55 277.4 367 273.2 382.15 265.8 391.1 253.95 395.9 247.6 398.45 240.3 401.05 232.65 400.85 225.05 400.5 212.9 392.75 199.25 389.85 194.25 385.3 187.8 379.9 180.5 377.2 176.8 365.3 160.5 352.5 138.6
M 270.6 92.15
Q 272.55 90.85 274.85 90.5 279.1 89.85 283.7 92.2 285.2 92.95 286.95 94.2 288.25 95.25 289.9 96.8 292.3 99 293.35 100.55 294.65 102.5 295.55 105.6 296.55 108.7 296.5 110.85 296.35 114.25 294.1 117.4 292.45 119.65 289.4 122.35 287.05 124.5 285.4 125.15 282.95 126.15 279.9 125.3 277.5 124.4 276.3 124.1 275.65 123.95 274.15 123.7 272.7 123.5 271.95 123.3 269 122.55 266.8 120 264.75 117.6 263.95 114.4 262.65 108.9 265.2 102.1 266.1 99.85 266.45 98.75
L 267 97.1
Q 267.3 96.1 267.65 95.45 268.6 93.5 270.6 92.15
M 235.55 138.8
Q 238.55 138.45 241.55 139.35 244.55 140.2 246.95 142.1 249.95 144.4 251.55 147.85 253.3 151.65 253.15 156.2 253.05 160.3 251.4 163.2 250.45 164.95 247.9 167.6 245.2 170.6 243.35 171.9 238.5 175.3 232.7 174.65 226.85 174.05 222.9 169.6 221 167.45 220.3 165.1 219.9 163.6 219.9 161 220 154.15 222.15 149.15 223.35 146.35 225.05 144.3 227.05 142 229.8 140.55 232.55 139.1 235.55 138.8 Z"/>

<path fill="#FEDA64" stroke="none" d="
M 241.55 139.35
Q 238.55 138.45 235.55 138.8 232.55 139.1 229.8 140.55 227.05 142 225.05 144.3 223.35 146.35 222.15 149.15 220 154.15 219.9 161 219.9 163.6 220.3 165.1 221 167.45 222.9 169.6 226.85 174.05 232.7 174.65 238.5 175.3 243.35 171.9 245.2 170.6 247.9 167.6 250.45 164.95 251.4 163.2 253.05 160.3 253.15 156.2 253.3 151.65 251.55 147.85 249.95 144.4 246.95 142.1 244.55 140.2 241.55 139.35 Z"/>

<path fill="#FF7178" stroke="none" d="
M 274.85 90.5
Q 272.55 90.85 270.6 92.15 268.6 93.5 267.65 95.45 267.3 96.1 267 97.1
L 266.45 98.75
Q 266.1 99.85 265.2 102.1 262.65 108.9 263.95 114.4 264.75 117.6 266.8 120 269 122.55 271.95 123.3 272.7 123.5 274.15 123.7 275.65 123.95 276.3 124.1 277.5 124.4 279.9 125.3 282.95 126.15 285.4 125.15 287.05 124.5 289.4 122.35 292.45 119.65 294.1 117.4 296.35 114.25 296.5 110.85 296.55 108.7 295.55 105.6 294.65 102.5 293.35 100.55 292.3 99 289.9 96.8 288.25 95.25 286.95 94.2 285.2 92.95 283.7 92.2 279.1 89.85 274.85 90.5 Z"/>
</g>

<g id="games_basic_0_Layer0_0_FILL">
<path fill="#1E3368" stroke="none" d="
M 340.55 94.9
Q 340.4 94.75 340.35 94.6 297.85 31.2 241.3 31.1 239.95 25.95 226.15 15.45 221.4 11.5 214.65 7.7 207.9 3.9 198.3 1.65 188.65 -0.65 174.2 0.3 155.68203125 1.1935546875 144.4 3.45 126.2 7.15 111.65 15.6 96 24.8 85.65 39.15 75.0443359375 53.7935546875 72.65 70.3 71.4556640625 71.013671875 70.1 71.85 69.8017578125 72.0373046875 69.5 72.2 63.923828125 75.3400390625 58.9 79.35 55.6984375 81.6759765625 53.05 83.85 44.3 91.1 38.85 98.9 34.45 105.35 30.2 115.15 21.2 135.85 15.05 162.7 10.75 181.35 6.1 212 2.2 238.25 -0.4 258.6 -1.8 269.55 -2.25 275.05 -3.05 284.15 -2.75 291.5 -2.15 303.65 1.45 311.45 3.8 316.4 8.15 321.35 11.35 325 16.75 329.75 26.65 338.55 34.75 341.95 41.45 344.8 52.9 346.1 67.05 347.7 78.15 346.55 91.7 345.15 101.85 339.5 108.4013671875 335.901171875 120.35 325.1 132.2953125 314.296484375 141.45 299.6 150.6619140625 284.899609375 153.2 281.95 155.776171875 279.010546875 156.1 278.45 157.7873046875 276.97265625 159.55 275.55 168.7 268.15 180.1 262.85 190.3 258.1 202.8 254.75 213.25 252 226.5 249.9 237.7 248.15 245.3 248.15 255.65 248.2 263.6 251.3 272.9 254.9 284 265.45 287.05 268.35 293.1 274.35 298.55 279.65 302.6 282.8 319.1 295.7 341.05 297.8 363 299.95 381.65 290.4 398 282.05 406.9 267.85 411.55 260.5 413.55 252.15 415.6 243.55 414.55 235.2 414.2755859375 233.02890625 413.75 230.65 413.2009765625 214.0529296875 401.6 194.2 401.5 194.15 401.5 194.05
L 340.55 94.9
M 325.2 104.3
L 370.5 178.05 386.15 203.45 386.05 203.3
Q 396.1 220.5 395.45 234.25 395.4 234.95 395.35 235.65 395.15 237.7 394.75 239.7 394.7 239.85 394.7 240 394.65 240.15 394.6 240.3 394.35 241.2 394 242.1 393.8 242.7 393.55 243.35 392.05 246.85 389.75 250.1 383.15 259.25 369.6 266.45 369.5 266.5 369.45 266.55
L 369.35 266.6
Q 334.05 283.2 301.6 253.45
L 301.55 253.4
Q 259.85 215.7 209.2 229
L 209.3 228.95
Q 186.458984375 234.551953125 170.3 241.7 150.9525390625 250.3126953125 141.15 261.15 123.15 280.25 115.25 294.45 113.7802734375 297.0115234375 112.15 299.3 94.61953125 324.26875 58.75 320.7 58.65 320.65 58.55 320.65 57.5955078125 320.5248046875 56.65 320.35 55.11484375 320.1396484375 53.6 319.85 53.4236328125 319.8125 53.2 319.75 52.8474609375 319.702734375 52.45 319.6 52.1251953125 319.5546875 51.75 319.45 32.8177734375 316.46796875 25.05 305.05 24.90625 304.8486328125 24.75 304.65 20.2205078125 298.1552734375 18.75 289.25 17.3341796875 280.472265625 18.9 269.3 18.9318359375 269.200390625 18.95 269.05 18.9603515625 268.9751953125 18.95 268.85 18.9845703125 268.779296875 19 268.65 19.066796875 268.3197265625 19.1 267.95 19.1873046875 267.5796875 19.25 267.2
L 19.25 267.3 38.7 155.8 39 154.1
Q 40.35 147.25 42.15 141.05 54.55 98 85.8 84.65 89.05 83.25 92.5 82.2 97.8 80.6 103.1 79.15 103.85 78.9 104.6 78.7 105 78.6 105.45 78.45 106.5 78.15 107.55 77.9 130.95 71.35 153.45 66.15 197.7 55.95 238.5 50.95 239.65 50.85 240.8 50.75 287.1 47.65 325.2 104.3
M 210.25 24.75
Q 221.7 34.1 218.1 35.55 207.298046875 37.1466796875 196.25 39.1 190.8955078125 40.044921875 185.45 41.05 144.1001953125 48.888671875 99.6 61.45 104.65 46.65 121.1 34.85 130.8556640625 27.8107421875 145.7 23.6 149.765234375 22.4625 154.2 21.5 154.3205078125 21.5021484375 154.45 21.45 154.5470703125 21.446484375 154.65 21.4 154.9701171875 21.3669921875 155.3 21.3 161.35 20.05 168.15 19.2 171.1681640625 18.8251953125 174 18.55 199.884375 16.322265625 210.25 24.75 Z"/>

<path fill="#356DA7" stroke="none" d="
M 172.75 29.95
Q 169.15 28.15 164.35 27 161.15 26.25 155.5 25.4 148.683984375 24.332421875 144.55 23.95 145.1439453125 23.7810546875 145.7 23.6 130.8556640625 27.8107421875 121.1 34.85 104.65 46.65 99.6 61.45 144.1001953125 48.888671875 185.45 41.05 185.073046875 40.563671875 184.7 40.1 179.15 33.15 172.75 29.95
M 384 239.1
Q 384.2857421875 239.0048828125 384.55 238.9 365.8697265625 245.159375 347.9 239.95 337.9 237.05 326.85 230.1 320.4 226.05 307.6 216.3 295.1 206.8 288.3 202.6 277.2 195.8 267.1 193.15 252.85 189.45 233.95 192.2 225.8 193.4 200.75 199.5 167.4 207.55 163.3 208.75 142.3 215.05 128.65 224.45 125.5294921875 226.5818359375 120.55 230.65 49.161328125 265.305078125 40.7 202.85 37.1525390625 227.3357421875 36.25 231.65 34.8 238.7 31.45 252.75 28.85 265.1 29 274.05 29.2 285.55 34.05 295.1 39.35 305.6 48.65 309.9 53.6 312.2 60.3 312.85 63.5234375 313.1724609375 68.35 313.1
L 68.35 313.1
Q 70.8576171875 312.7357421875 73.7 312.15 83.2 310.25 88.2 307.7 92.3 305.6 96.35 301.95 99.55 299.1 103.3 294.7 107.4 289.85 113.15 282.15 122.1 270.1 122.7 269.3 134.3 254.2 144.6 246.6 157.1 237.4 177.75 231.25 183.45 229.55 195.5 226.45 196.7861328125 226.1203125 198 225.8 199.679296875 225.2921875 201.45 224.8 204.9560546875 223.8298828125 208.35 223 211.124609375 222.2400390625 213.2 221.6 216.3861328125 220.6111328125 218.4 220.9 217.9326171875 221.0078125 217.45 221.1 252.853125 214.653515625 277.95 226.3 284.85 229.5 293.5 235.45 298.5 238.85 308.3 246.05 326.55 258.95 340 261.4 349.75 263.15 359.2 260.7 369 258.15 375.8 251.6 381.3724609375 246.3021484375 384 239.1 Z"/>

<path fill="#4590DC" stroke="none" d="
M 218.1 35.55
Q 221.7 34.1 210.25 24.75 199.884375 16.322265625 174 18.55 171.1681640625 18.8251953125 168.15 19.2 161.35 20.05 155.3 21.3 154.9701171875 21.3669921875 154.65 21.4 154.5470703125 21.446484375 154.45 21.45 154.3205078125 21.5021484375 154.2 21.5 149.765234375 22.4625 145.7 23.6 145.1439453125 23.7810546875 144.55 23.95 148.683984375 24.332421875 155.5 25.4 161.15 26.25 164.35 27 169.15 28.15 172.75 29.95 179.15 33.15 184.7 40.1 185.073046875 40.563671875 185.45 41.05 190.8955078125 40.044921875 196.25 39.1 207.298046875 37.1466796875 218.1 35.55
M 379.1 196.65
Q 375.85 193.65 371.25 189.9 347.65 170.35 320.1 144.3 292.5 118.2 272.95 104.55 260.45 95.85 247.95 90 235.35 84.05 222.75 81.05 205.25 76.85 184.8 77.6 167.15 78.25 127.05 78.35 121.5 78.35 117 78.35 118.45 76.3 122.8 74.95 138 70.35 153.45 66.15 130.95 71.35 107.55 77.9 106.5 78.15 105.45 78.45 105 78.6 104.6 78.7 103.85 78.9 103.1 79.15 97.8 80.6 92.5 82.2 89.05 83.25 85.8 84.65 54.55 98 42.15 141.05 41.65 143.7 41.15 146.5 40.3880859375 150.662890625 39.7 154.55 39.3349609375 154.939453125 39 155.4 38.8462890625 155.5974609375 38.7 155.8
L 19.25 267.3 19.25 267.2
Q 19.1873046875 267.5796875 19.1 267.95 19.066796875 268.3197265625 19 268.65 18.9845703125 268.779296875 18.95 268.85 18.9603515625 268.9751953125 18.95 269.05 18.9318359375 269.200390625 18.9 269.3 17.3341796875 280.472265625 18.75 289.25 19.552734375 292.8244140625 20.75 296.15 22.423828125 300.788671875 24.8 304.7 24.934765625 304.870703125 25.05 305.05 32.8177734375 316.46796875 51.75 319.45 52.1251953125 319.5546875 52.45 319.6 52.8474609375 319.702734375 53.2 319.75 53.4236328125 319.8125 53.6 319.85 55.11484375 320.1396484375 56.65 320.35 57.5955078125 320.5248046875 58.55 320.65 58.65 320.65 58.75 320.7 94.61953125 324.26875 112.15 299.3 113.7802734375 297.0115234375 115.25 294.45 123.15 280.25 141.15 261.15 150.9525390625 250.3126953125 170.3 241.7 186.458984375 234.551953125 209.3 228.95
L 209.2 229
Q 259.85 215.7 301.55 253.4
L 301.6 253.45
Q 334.05 283.2 369.35 266.6
L 369.45 266.55
Q 369.5 266.5 369.6 266.45 383.15 259.25 389.75 250.1 392.05 246.85 393.55 243.35 393.8 242.7 394 242.1 394.35 241.2 394.6 240.3 394.65 240.15 394.7 240 394.7 239.85 394.75 239.7 395.15 237.7 395.35 235.65 395.4 234.95 395.45 234.25 396.1 220.5 386.05 203.3
L 386.15 203.45 370.5 178.05
Q 374.5 186.35 378.35 194.85 378.75 195.8 379.1 196.65
M 376.1 205.15
Q 375.9 205.15 375.7 205.2 373.65 205.45 371.75 204.5 370.7 204 376.1 205.15
M 384.55 238.9
Q 384.2857421875 239.0048828125 384 239.1 381.3724609375 246.3021484375 375.8 251.6 369 258.15 359.2 260.7 349.75 263.15 340 261.4 326.55 258.95 308.3 246.05 298.5 238.85 293.5 235.45 284.85 229.5 277.95 226.3 252.853125 214.653515625 217.45 221.1 217.9326171875 221.0078125 218.4 220.9 216.3861328125 220.6111328125 213.2 221.6 211.124609375 222.2400390625 208.35 223 204.9560546875 223.8298828125 201.45 224.8 199.679296875 225.2921875 198 225.8 196.7861328125 226.1203125 195.5 226.45 183.45 229.55 177.75 231.25 157.1 237.4 144.6 246.6 134.3 254.2 122.7 269.3 122.1 270.1 113.15 282.15 107.4 289.85 103.3 294.7 99.55 299.1 96.35 301.95 92.3 305.6 88.2 307.7 83.2 310.25 73.7 312.15 70.8576171875 312.7357421875 68.35 313.1
L 68.35 313.1
Q 63.5234375 313.1724609375 60.3 312.85 53.6 312.2 48.65 309.9 39.35 305.6 34.05 295.1 29.2 285.55 29 274.05 28.85 265.1 31.45 252.75 34.8 238.7 36.25 231.65 37.1525390625 227.3357421875 40.7 202.85 49.161328125 265.305078125 120.55 230.65 125.5294921875 226.5818359375 128.65 224.45 142.3 215.05 163.3 208.75 167.4 207.55 200.75 199.5 225.8 193.4 233.95 192.2 252.85 189.45 267.1 193.15 277.2 195.8 288.3 202.6 295.1 206.8 307.6 216.3 320.4 226.05 326.85 230.1 337.9 237.05 347.9 239.95 365.8697265625 245.159375 384.55 238.9 Z"/>

<path fill="#2458BB" stroke="none" d="
M 20.75 296.15
Q 19.552734375 292.8244140625 18.75 289.25 20.2205078125 298.1552734375 24.75 304.65 24.90625 304.8486328125 25.05 305.05 24.934765625 304.870703125 24.8 304.7 22.423828125 300.788671875 20.75 296.15
M 41.15 146.5
Q 41.65 143.7 42.15 141.05 40.35 147.25 39 154.1
L 38.7 155.8
Q 38.8462890625 155.5974609375 39 155.4 39.3349609375 154.939453125 39.7 154.55 40.3880859375 150.662890625 41.15 146.5 Z"/>

<path fill="#74B4F5" stroke="none" d="
M 371.25 189.9
Q 375.85 193.65 379.1 196.65 378.75 195.8 378.35 194.85 374.5 186.35 370.5 178.05
L 325.2 104.3
Q 287.1 47.65 240.8 50.75 239.65 50.85 238.5 50.95 197.7 55.95 153.45 66.15 138 70.35 122.8 74.95 118.45 76.3 117 78.35 121.5 78.35 127.05 78.35 167.15 78.25 184.8 77.6 205.25 76.85 222.75 81.05 235.35 84.05 247.95 90 260.45 95.85 272.95 104.55 292.5 118.2 320.1 144.3 347.65 170.35 371.25 189.9 Z"/>

<path fill="#6993E2" stroke="none" d="
M 375.7 205.2
Q 375.9 205.15 376.1 205.15 370.7 204 371.75 204.5 373.65 205.45 375.7 205.2 Z"/>
</g>

<g id="games_basic_0_Layer0_1_MEMBER_0_FILL">
<path fill="#993304" stroke="none" d="
M 271.95 80.75
Q 271.75 80.75 271.5 80.9 260.55 84.75 255.2 94.4 255.15 94.55 255 94.8 250.4 104.3 253.4 115.3 253.45 115.6 253.6 115.85 257.2 126.1 266.9 131.45 276.9 137.55 288.05 133.9 298.45 131.1 304.6 120.4 304.75 120.2 304.8 120.1 310.15 109.5 306.5 99.2 303.3 87.8 292.8 83.1 282.3 77.85 271.95 80.75
M 285.95 96.55
Q 286.1 96.65 286.35 96.8 290.7 98.65 291.9 103.3 292.05 103.6 292.2 103.95 293.7 108.5 291.45 113.15 291.45 113.2 291.4 113.25 288.5 117.9 283.9 119.4 283.75 119.4 283.5 119.5 278.8 121.15 274.65 118.6 274.4 118.4 274.3 118.35 269.65 115.8 267.85 111.1 266.5 105.95 268.6 101.5 271.15 97.05 276.25 95.2 281 94.15 285.95 96.55 Z"/>

<path fill="#FF7178" stroke="none" d="
M 286.35 96.8
Q 286.1 96.65 285.95 96.55 281 94.15 276.25 95.2 271.15 97.05 268.6 101.5 266.5 105.95 267.85 111.1 269.65 115.8 274.3 118.35 274.4 118.4 274.65 118.6 278.8 121.15 283.5 119.5 283.75 119.4 283.9 119.4 288.5 117.9 291.4 113.25 291.45 113.2 291.45 113.15 293.7 108.5 292.2 103.95 292.05 103.6 291.9 103.3 290.7 98.65 286.35 96.8 Z"/>
</g>

<g id="games_basic_0_Layer0_1_MEMBER_1_FILL">
<path fill="#BA6800" stroke="none" d="
M 233.9 131.3
Q 233.7 131.3 233.5 131.45 221.5 135.45 217.05 145.95 211.75 155.7 214.8 166 214.8 166.2 214.9 166.35 218.5 177.25 228.95 183.15 229 183.15 229.1 183.3 238 188.3 249.95 184.45
L 250 184.45
Q 260.25 181.6 266.45 171.9 266.75 171.35 267.05 170.8 271.45 160.45 267.75 149.55 264.75 139.2 254.85 133.8 254.75 133.7 254.7 133.65 244.2 128.35 233.9 131.3
M 236.35 170
Q 231.2 167.1 229.3 161.75 228 157.2 230.4 152.9 230.6 152.5 230.65 152.2 232.8 147.55 238.15 145.75 243.05 144.6 247.85 147.1 252 149.55 253.35 153.95 253.35 154.15 253.45 154.45 255.25 159.5 253.4 164.3 250.4 168.55 245.8 169.95 245.65 169.95 245.5 170.05 240.25 171.75 236.35 170 Z"/>

<path fill="#FEDA64" stroke="none" d="
M 229.3 161.75
Q 231.2 167.1 236.35 170 240.25 171.75 245.5 170.05 245.65 169.95 245.8 169.95 250.4 168.55 253.4 164.3 255.25 159.5 253.45 154.45 253.35 154.15 253.35 153.95 252 149.55 247.85 147.1 243.05 144.6 238.15 145.75 232.8 147.55 230.65 152.2 230.6 152.5 230.4 152.9 228 157.2 229.3 161.75 Z"/>
</g>

<g id="games_basic_0_Layer0_2_FILL">
<path fill="#356DA7" stroke="none" d="
M 156.5 162.65
Q 153.9 166.8 149.1 168.15
L 132.45 172.5 132.45 172.7 119.15 176.2 121.95 186.85
Q 131.3796875 184.46953125 138.25 182.6
L 138.25 182.3
Q 144.3244140625 180.566796875 147.5 179.45 154.95 176.75 157.35 172.55 159.75 168.35 158.15 165.65 156.5 162.9 156.5 162.65
M 68.95 163.6
L 68.9 163.6
Q 61.75 164.6 57.85 165.7 51.65 167.4 47.15 170.75 42 174.55 40.2 179.8 38 186 41.15 192.55 44.4 199 50.65 201.05 54.7 202.3 60.45 201.9 67.0548828125 201.4029296875 74.95 199.6 82.8916015625 197.846484375 86.1 196.7
L 90.2 212.5
Q 90.7396484375 214.613671875 91.2 216.4 91.249609375 216.3876953125 91.25 216.35 91.7787109375 218.1123046875 92.2 219.35 94.15 225 96.6 229.1 99.55 234 103.55 237 107.55 240 111.75 239.75 115.9 239.45 122.25 237.9 128.5 236.3 130.15 231.25 131.75 226.2 128.35 218.65 127.9 220 127.2 221.4 124.5 225.9 119.55 227.2 114.55 228.5 110.05 225.9 105.55 223.2 104.25 218.25
L 94.9 182.6 76.15 187.5 76.15 187.55 62.7 191.1
Q 57.75 192.4 53.3 189.8 48.8 187.2 47.5 182.25 46.1 177.25 48.75 172.75 51.35 168.25 56.35 166.95
L 68.95 163.6
M 71.45 134.05
Q 71.8740234375 137.378515625 73.15 142.95
L 77.2 161.45 88.55 158.4 83.05 137.6 82.8 137.6 79.6 125.5
Q 78.3 120.5 80.95 116 81.3 115.45 81.7 114.9 79.5 115.85 77.5 117.75 73.7 121.3 72.45 126.5 71.5947265625 129.88203125 71.8 134.05
L 71.45 134.05 Z"/>

<path fill="#FFFFFF" stroke="none" d="
M 80.95 116
Q 78.3 120.5 79.6 125.5
L 82.8 137.6 83.05 137.6 88.55 158.4 77.2 161.45 68.9 163.6 68.95 163.6 56.35 166.95
Q 51.35 168.25 48.75 172.75 46.1 177.25 47.5 182.25 48.8 187.2 53.3 189.8 57.75 192.4 62.7 191.1
L 76.15 187.55 76.15 187.5 94.9 182.6 104.25 218.25
Q 105.55 223.2 110.05 225.9 114.55 228.5 119.55 227.2 124.5 225.9 127.2 221.4 127.9 220 128.35 218.65 129.4 215.4 128.5 211.95
L 126.9 205.95 126.95 205.95 121.95 186.85 119.15 176.2 132.45 172.7 132.45 172.5 149.1 168.15
Q 153.9 166.8 156.5 162.65 156.6 162.45 156.75 162.25 159.35 157.8 158.05 152.85 156.65 147.85 152.2 145.2 147.7 142.6 142.75 143.95
L 132.45 146.65 132.45 146.85 112.8 152.05 108 134.05 107.75 134.05 103.8 119.15
Q 102.5 114.2 98 111.6 93.55 108.9 88.6 110.3 84.2 111.35 81.7 114.9 81.3 115.45 80.95 116 Z"/>
</g>
</defs>

<g transform="matrix( 0.183349609375, 0, 0, 0.183349609375, 2.45,8.35) ">
<g transform="matrix( 1, 0, 0, 1, 0,0) ">
<use xlink:href="#games_basic_0_Layer1_0_FILL"/>
</g>

<g transform="matrix( 1, 0, 0, 1, 0,0) ">
<use xlink:href="#games_basic_0_Layer0_0_FILL"/>
</g>

<g transform="matrix( 1, 0, 0, 1, 0,0) ">
<use xlink:href="#games_basic_0_Layer0_1_MEMBER_0_FILL"/>
</g>

<g transform="matrix( 1, 0, 0, 1, -5.15,0) ">
<use xlink:href="#games_basic_0_Layer0_1_MEMBER_1_FILL"/>
</g>

<g transform="matrix( 1, 0, 0, 1, 4.2,-4.2) ">
<use xlink:href="#games_basic_0_Layer0_2_FILL"/>
</g>
</g>
</svg>
