
<svg xmlns="http://www.w3.org/2000/svg" version="1.1" xmlns:xlink="http://www.w3.org/1999/xlink" preserveAspectRatio="none" x="0px" y="0px" width="80px" height="80px" viewBox="0 0 80 80">
<defs>
<g id="premium_basic_0_Layer1_0_FILL">
<path fill="#CC3305" stroke="none" d="
M 280.8 92.9
Q 279.9240234375 92.727734375 279.05 92.65 278.638671875 92.1908203125 278.25 91.75 274.8 87.75 273.05 85.8 269.95 82.35 267.4 80.25 265.05 78.3 261.15 75.8 255.5 72.2 254.7 71.65 252.4 70.1 248.4 66.95 244.1 63.6 242.1 62.2 232.85 55.7 220.2 51.35 210.3 47.9 196.3 45.1 182.85 42.5 173.65 42.3 166.5 42.2 153.25 43.85 140.95 45.45 134.15 47.85 128.8 49.7 122.9 53 118.55 55.45 112.4 59.65 95.95 70.75 85.2 81.1 71.65 94.1 64.4 108.25 55.25 125.95 53.7 149.45 52.5 167.3 55.85 192.15 57 201.15 58.4 207.15 60.3 215.2 63.25 221.5 65.15 225.5 68.2 230.2 69.9 232.8 73.95 238.45 79.9 246.7 83.05 250.5 88.85 257.5 98.6 266.25 110.3 276.85 119.15 281.5 124.8 284.45 132.25 286.7 137.5 288.3 146.05 290.2 165.75 294.55 178.4 294.95 188.75 295.25 203.6 293.4 214.9 292 221.3 290.1 225.45 288.9 230.4 286.85 233.5 285.6 239.25 283 246.45 279.75 250.25 277.9 256.25 274.9 260.85 272 265.35 269.15 273.75 262.55 282.55 255.65 286.5 251.6 302.15 235.35 308.45 204.25 312.45 184.45 311.25 168.8 310.85 163.55 309.75 157.05 309.1 153.15 307.55 145.4 305.35 134.7 303.9 129.65 301.45 121 297.8 114.85 296.177734375 112.137890625 293.8 109.1 293.6775390625 106.9576171875 292.8 104.55 290.6 98.4 286.15 95.2 283.7 93.45 280.8 92.9 Z"/>
</g>

<g id="premium_basic_0_Layer0_0_FILL">
<path fill="#660A01" stroke="none" d="
M 325.9 113.1
Q 327.05 111.75 327.85 110.65 329.05 109.5 330.5 108.2 325.25 108.25 319.05 108.3 314.55 108.35 309.55 108.35 309.25 108.35 308.95 108.35 308.4 108.35 307.95 108.35 304.15 108.35 300.1 108.35 298.8 108.35 297.6 108.35 296.35 106.25 295 104.2 294.4 103.15 293.7 102.15 293.2 101.3 292.55 100.4 290.85 98 289 95.55 289 95.5 289 95.45 288.7 95 288.4 94.55 287.85 93.8 287.4 93.2 285.15 90.3 282.8 87.6 282.4 87.15 281.95 86.65 279.5 83.8 276.9 81.05
L 276.05 80.2
Q 275.9 79.95 275.6 79.75 268 71.95 259.75 65.7
L 243.7 54.7
Q 240.6 52.95 237.35 51.35 232.1 48.7 226.6 46.5 219.75 43.8 212.55 41.85 198.4 37.95 183 37.1 181 33.1 179.15 29.05
L 179.1 29.05
Q 178.75 29.05 178.45 29.05 176.9 26.1 175.45 23.35 172.85 18.3 170.45 13.5 170.15 12.85 169.9 12.2 169.85 12.25 169.85 12.4 169.8015625 12.3515625 169.8 12.3 169.7994140625 12.451953125 169.75 12.65 169.25 14.25 168.65 16 167.25 20.1 165.7 24.85 165 26.95 164.3 29.15 164.2 29.15 164.15 29.15 162.9 32.85 161.45 37.3 161.15 37.35 160.9 37.35 156.1 37.75 151.4 38.45 143.9 39.65 136.6 41.7 106.6 50.2 82.45 73.25 80.95 74.7 79.25 76.35
L 78.45 77.25
Q 78.2 77.4 78.05 77.6 77.8 77.9 77.55 78.2
L 76 79.9
Q 75.65 80.25 75.3 80.7 75 80.95 74.7 81.35
L 65.75 92.6
Q 61.15 98.95 57.45 105.75 56.5 107.35 55.65 109.1
L 55.6 109.1
Q 50.25 109 44.9 108.8 44.85 108.9 44.8 109 44.75 109 44.7 109 44.45 109 44.1 109 37.95 108.95 25.95 109.05 28.9 111.85 32 114.5 32.55 115 33.1 115.45
L 36.55 118.8
Q 37.75 119.95 39.05 121.2 39.35 121.55 39.75 121.9
L 39.7 121.95
Q 43.6 125.65 47.7 129.45 45.7 136.1 44.5 143.15 43 151.5 42.6 160.4 42.4 163.9 42.4 167.45 42.4 170.7 42.5 173.9 42.5 173.95 42.5 174.05
L 44.75 193.5
Q 47.35 207.4 52.7 220.35
L 58.35 232.15
Q 59.4 233.95 60.45 235.7 60.65 236.1 60.85 236.45 63.8 241.35 67.25 246.1 67.3 246.15 67.35 246.25 67.6 246.7 68 247.2 68.4 247.8 68.75 248.3 70.75 250.9 72.8 253.5 74 254.95 75.2 256.35 78.7 260.4 82.45 264.3 86.9 268.85 91.55 272.9 90.55 276.85 89.45 281.2 89.5 281.25 89.55 281.3 89.45 281.7 89.35 282.15 88.15 287.75 87.15 292.85
L 83.15 305.9
Q 91.75 300.4 101 294.1 105.85 290.6 110.75 287.1 120.55 293.15 131.25 297.45 146.05 303.3 162.4 305.65 167.25 306.35 172.2 306.75 173.95 306.85 175.65 306.95
L 179.05 307.1
Q 179.2 307.1 179.35 307.1
L 201.55 306.25
Q 218.1 304.2 233 298.4
L 243.1 293.9 254.25 287.55
Q 259.2 284.45 264.05 280.75 268.45 283.45 272.75 286.3
L 273.65 286.9
Q 284.3 293.6 289.85 296.3
L 292.65 298.25 281.7 264.7
Q 285.6 260.4 289.05 255.95 289.9 254.85 290.8 253.85 293 250.9 294.95 248.05 295.6 247 296.25 246 296.4 245.75 296.6 245.5 296.65 245.4 296.7 245.4 296.75 245.3 296.8 245.2 297.05 244.7 297.35 244.3 297.45 244 297.65 243.75 301.6 237.15 304.85 230 304.95 229.85 305.05 229.65 305.1 229.45 305.15 229.25 305.55 228.4 305.9 227.55 307.3 224.1 308.55 220.6 309.1 218.95 309.6 217.35 310.25 215.35 310.8 213.3 312.15 208.55 313.15 203.65 313.3 203.25 313.4 202.85 313.6 201.45 313.85 200.1 314 198.5 314.25 196.9 314.5 195.3 314.65 193.65 315.15 189.15 315.45 184.5 315.45 183.85 315.5 183.1 315.5 182.9 315.55 182.75 315.55 182.4 315.55 182.05 315.55 181.7 315.6 181.25 315.65 178.95 315.65 176.65 315.65 173.2 315.5 169.9 315.45 169 315.4 168.05 315.4 168 315.4 167.95 315.4 167.7 315.35 167.45 315.35 167 315.3 166.65 314.85 159.15 313.5 151.95 312.5 146.1 311.05 140.45 310.7 139.2 310.4 137.95 309.7 135.65 309 133.3 308.8 132.8 308.65 132.35 309.75 131.05 310.95 129.8 313.3 127.15 315.8 124.6 315.75 124.45 315.7 124.4 315.75 124.3 315.8 124.3 315.85 124.2 315.95 124.1 316.2 123.85 316.4 123.55 316.45 123.5 316.55 123.4 322.55 117.15 325.9 113.1
M 168.75 73.25
Q 170.8 63.2 172.95 53.1 173 53.35 173.15 53.65 173.8 54.95 174.4 56.2 178.6 64.9 182.3 72.7 199.2 107.6 206.9 121.85 207.1 121.7 207.35 121.6 207.4 122.7 207.45 123.85 207.8 130.9 208.05 139.2 212.85 134.7 223.75 124.55 224.55 124.55 225.35 124.5 247 123.95 263.9 123.2 282.35 122.25 295.1 121 295.1 121.05 295.15 121.15 295.55 121.95 295.85 122.7 282.7 134.05 272.1 143.05 246.45 164.75 236.05 172.5 229.65 173.05 222.3 173.65 227 177.65 241.45 185.85 241.65 186.4 241.8 187.05 249.1 210.35 254.8 228.75 258.25 239.8 261.15 249.05 261.65 250.85 262.25 252.65 263.45 256.5 264.55 260.05 261.25 257.8 258.1 255.7 248.65 249.2 240.5 243.6 210.85 223.3 197.9 214.45
L 190.45 191.3
Q 188.75 196.25 184.9 206 172.75 216.3 154.75 230.5 141.55 240.85 125.2 253.3 121.25 256.25 117.1 259.45 115.95 260.3 114.8 261.15 115.2 259.7 115.6 258.3 119.65 243.55 124 224.8 130.6 196.35 132.95 184.4 137.3 179.75 142.4 174.55 135.85 174.15 121 173.4 93.25 150.4 71.4 131.35 68.25 128.65 65.25 126 65 125.8 64.85 125.65
L 149.7 128.4
Q 152.5 129.4 155.6 130.55 159.65 132.1 164.15 133.8 162.2 128.15 159.25 118.65 164 96.15 168.75 73.25
M 215 96.2
Q 210.85 88.4 204.1 75.95 201.25 70.65 197.9 64.6 231.7 68.6 256.8 93.7 263.3 100.2 268.35 107.2 260.75 107.15 252.55 107.05 237.45 106.85 220.2 106.55 218.7 103.25 215 96.2
M 194.85 59.1
Q 192 53.85 188.85 48.1 236.15 52.05 270.35 86.55 280.15 96.5 287.3 107.35 281.1 107.3 274.45 107.25 268.35 98.2 260.2 90.05 232.6 62.45 194.85 59.1
M 296.5 143.6
Q 299.25 140.85 301.8 138.35 302 139 302.2 139.65 306.85 155.9 306.85 173.8 306.85 177.1 306.7 180.3 304.8 220.55 278.45 250.05
L 275.65 240.45 272 228.05
Q 278.75 218.75 283.2 208.45 291.65 188.9 291.65 165.9 291.65 157.45 290.5 149.45 293.35 146.6 296.5 143.6
M 258.05 180.8
Q 264.45 174.75 275.5 164.05 280.35 159.35 286.05 153.8 286.65 159.65 286.65 165.75 286.65 187.45 278.75 205.95 275.25 214.2 270.15 221.8
L 266.45 209.2 258.05 180.8
M 157.7 48.95
Q 157.8 48.95 157.9 48.95 157.4 50.4 156.95 51.9 155.2 57.2 153.4 62.9 128.35 70.25 108.55 90.05 99.2 99.4 92.65 109.9 86.9 109.75 80.5 109.6 78.6 109.55 76.65 109.5 74 109.5 71.05 109.45
L 71.1 109.35
Q 79.85 93.45 94.1 80.05 112.25 63.05 134.1 54.95 145.45 50.8 157.7 48.95
M 151.4 69.1
Q 150.05 73.4 148.6 77.95 143.85 93 138.35 110.55 128.65 110.65 102.9 110.15 101 110.1 99.05 110.05 104.8 101.45 112.55 93.7 129.9 76.35 151.4 69.1
M 67.8 148.75
Q 72.4 153.15 77.4 157.9 77.1 161.85 77.1 165.9 77.1 203.9 100.15 232.45
L 98.8 238.55
Q 98.45 240.15 98.05 241.85 96.75 247.75 95.55 253.25 94.85 252.55 94.1 251.8 57.6 214.95 57.6 164.55 57.6 152.35 59.75 141.05 63.65 144.8 67.8 148.75
M 82.65 165.75
Q 82.65 164.4 82.7 163 95.2 174.95 109.8 188.9
L 101.75 225.3
Q 82.65 199.45 82.65 165.75
M 126.6 276.2
Q 130.7 273.25 134.95 270.1 135.3 269.85 135.7 269.55 138.85 267.25 142.05 264.85 149.85 268.2 158.15 270.2 170.65 273.2 184.4 273.2 212.15 273.2 234.9 260.9 236.15 261.8 237.45 262.7 239.7 264.25 241.85 265.7 247.2 269.35 252.05 272.65 251.6 272.9 251.2 273.15 221 292.05 182.2 290.6 151.8 289.45 126.6 276.2
M 147.3 260.95
Q 148.35 260.15 149.45 259.4 167.95 245.45 188.45 229.25 197.85 235.35 224.95 254.05 227.4 255.75 229.95 257.5 209.45 267.7 184.65 267.7 184.2 267.7 183.7 267.7 164.15 267.6 147.3 260.95 Z"/>

<path fill="#84C9FD" stroke="none" d="
M 183.7 267.7
Q 184.2 267.7 184.65 267.7 209.45 267.7 229.95 257.5 227.4 255.75 224.95 254.05 207.1 263.85 183.7 267.7
M 148.6 77.95
Q 150.05 73.4 151.4 69.1 129.9 76.35 112.55 93.7 104.8 101.45 99.05 110.05 101 110.1 102.9 110.15 114.75 95 132.95 85 140.7 80.75 148.6 77.95
M 286.65 165.75
Q 286.65 159.65 286.05 153.8 280.35 159.35 275.5 164.05 276.3 182.8 269.35 201.9 268.05 205.65 266.45 209.2
L 270.15 221.8
Q 275.25 214.2 278.75 205.95 286.65 187.45 286.65 165.75
M 204.1 75.95
Q 224.35 81.55 241.6 96.25 247.55 101.4 252.55 107.05 260.75 107.15 268.35 107.2 263.3 100.2 256.8 93.7 231.7 68.6 197.9 64.6 201.25 70.65 204.1 75.95 Z"/>

<path fill="#4892DE" stroke="none" d="
M 149.45 259.4
Q 148.35 260.15 147.3 260.95 164.15 267.6 183.7 267.7 207.1 263.85 224.95 254.05 197.85 235.35 188.45 229.25 167.95 245.45 149.45 259.4
M 82.7 163
Q 82.65 164.4 82.65 165.75 82.65 199.45 101.75 225.3
L 109.8 188.9
Q 95.2 174.95 82.7 163
M 148.6 77.95
Q 140.7 80.75 132.95 85 114.75 95 102.9 110.15 128.65 110.65 138.35 110.55 143.85 93 148.6 77.95
M 204.1 75.95
Q 210.85 88.4 215 96.2 218.7 103.25 220.2 106.55 237.45 106.85 252.55 107.05 247.55 101.4 241.6 96.25 224.35 81.55 204.1 75.95 Z"/>

<path fill="#FF4008" stroke="none" d="
M 134.95 270.1
Q 139.7 272.35 144.6 274.15 165.3 281.55 188.4 280.4 210.55 279.3 231.65 270.45 236.9 268.25 241.85 265.7 239.7 264.25 237.45 262.7 236.15 261.8 234.9 260.9 212.15 273.2 184.4 273.2 170.65 273.2 158.15 270.2 149.85 268.2 142.05 264.85 138.85 267.25 135.7 269.55 135.3 269.85 134.95 270.1
M 67.8 148.75
Q 66.4 160.5 67.7 172.85 70 194.85 80.3 215.35 87.65 229.9 98.05 241.85 98.45 240.15 98.8 238.55
L 100.15 232.45
Q 77.1 203.9 77.1 165.9 77.1 161.85 77.4 157.9 72.4 153.15 67.8 148.75
M 157.9 48.95
Q 157.8 48.95 157.7 48.95 145.45 50.8 134.1 54.95 133.8 55.15 133.5 55.35 117.1 65.55 103.95 78.75 89.45 93.25 80.5 109.6 86.9 109.75 92.65 109.9 99.2 99.4 108.55 90.05 128.35 70.25 153.4 62.9 155.2 57.2 156.95 51.9 157.4 50.4 157.9 48.95
M 301.8 138.35
Q 299.25 140.85 296.5 143.6 293.35 146.6 290.5 149.45 291.65 157.45 291.65 165.9 291.65 188.9 283.2 208.45 278.75 218.75 272 228.05
L 275.65 240.45
Q 288.25 227.3 296 211.3 302.95 197 306.7 180.3 306.85 177.1 306.85 173.8 306.85 155.9 302.2 139.65 302 139 301.8 138.35
M 188.85 48.1
Q 192 53.85 194.85 59.1 232.6 62.45 260.2 90.05 268.35 98.2 274.45 107.25 281.1 107.3 287.3 107.35 280.15 96.5 270.35 86.55 236.15 52.05 188.85 48.1
M 125.2 253.3
Q 141.55 240.85 154.75 230.5
L 179.65 205.9 182.4 177.2
Q 151.8 214.45 125.2 253.3
M 65.25 126
Q 68.75 127.1 72.4 128.2 124.45 144.1 178.55 158.6 166.8 144.4 155.6 130.55 152.5 129.4 149.7 128.4
L 64.85 125.65
Q 65 125.8 65.25 126
M 225.35 124.5
Q 212.95 142.6 205.2 153.45 237.3 142.45 259.1 135.35 263.9 133.75 268.3 132.25 284.05 126.7 295.15 121.15 295.1 121.05 295.1 121 282.35 122.25 263.9 123.2 247 123.95 225.35 124.5
M 241.8 187.05
L 208.5 167.75
Q 229.15 203.35 250.45 234.05 255.75 241.7 261.15 249.05 258.25 239.8 254.8 228.75 249.1 210.35 241.8 187.05
M 174.4 56.2
Q 175.55 64.45 177 72.7 183.65 112.05 194.95 151.2 199.2 141.8 207.45 123.85 207.4 122.7 207.35 121.6 207.1 121.7 206.9 121.85 199.2 107.6 182.3 72.7 178.6 64.9 174.4 56.2 Z"/>

<path fill="#CC3305" stroke="none" d="
M 134.95 270.1
Q 130.7 273.25 126.6 276.2 151.8 289.45 182.2 290.6 221 292.05 251.2 273.15 251.6 272.9 252.05 272.65 247.2 269.35 241.85 265.7 236.9 268.25 231.65 270.45 210.55 279.3 188.4 280.4 165.3 281.55 144.6 274.15 139.7 272.35 134.95 270.1
M 67.7 172.85
Q 66.4 160.5 67.8 148.75 63.65 144.8 59.75 141.05 57.6 152.35 57.6 164.55 57.6 214.95 94.1 251.8 94.85 252.55 95.55 253.25 96.75 247.75 98.05 241.85 87.65 229.9 80.3 215.35 70 194.85 67.7 172.85
M 133.5 55.35
Q 133.8 55.15 134.1 54.95 112.25 63.05 94.1 80.05 79.85 93.45 71.1 109.35
L 71.05 109.45
Q 74 109.5 76.65 109.5 78.6 109.55 80.5 109.6 89.45 93.25 103.95 78.75 117.1 65.55 133.5 55.35
M 296 211.3
Q 288.25 227.3 275.65 240.45
L 278.45 250.05
Q 304.8 220.55 306.7 180.3 302.95 197 296 211.3
M 172.95 53.1
Q 170.8 63.2 168.75 73.25 164 96.15 159.25 118.65 162.2 128.15 164.15 133.8 159.65 132.1 155.6 130.55 166.8 144.4 178.55 158.6 124.45 144.1 72.4 128.2 68.75 127.1 65.25 126 68.25 128.65 71.4 131.35 93.25 150.4 121 173.4 135.85 174.15 142.4 174.55 137.3 179.75 132.95 184.4 130.6 196.35 124 224.8 119.65 243.55 115.6 258.3 115.2 259.7 114.8 261.15 115.95 260.3 117.1 259.45 121.25 256.25 125.2 253.3 151.8 214.45 182.4 177.2
L 179.65 205.9 154.75 230.5
Q 172.75 216.3 184.9 206 188.75 196.25 190.45 191.3
L 197.9 214.45
Q 210.85 223.3 240.5 243.6 248.65 249.2 258.1 255.7 261.25 257.8 264.55 260.05 263.45 256.5 262.25 252.65 261.65 250.85 261.15 249.05 255.75 241.7 250.45 234.05 229.15 203.35 208.5 167.75
L 241.8 187.05
Q 241.65 186.4 241.45 185.85 227 177.65 222.3 173.65 229.65 173.05 236.05 172.5 246.45 164.75 272.1 143.05 282.7 134.05 295.85 122.7 295.55 121.95 295.15 121.15 284.05 126.7 268.3 132.25 263.9 133.75 259.1 135.35 237.3 142.45 205.2 153.45 212.95 142.6 225.35 124.5 224.55 124.55 223.75 124.55 212.85 134.7 208.05 139.2 207.8 130.9 207.45 123.85 199.2 141.8 194.95 151.2 183.65 112.05 177 72.7 175.55 64.45 174.4 56.2 173.8 54.95 173.15 53.65 173 53.35 172.95 53.1 Z"/>

<path fill="#618DE1" stroke="none" d="
M 275.5 164.05
Q 264.45 174.75 258.05 180.8
L 266.45 209.2
Q 268.05 205.65 269.35 201.9 276.3 182.8 275.5 164.05 Z"/>
</g>
</defs>

<g transform="matrix( 0.2457122802734375, 0, 0, 0.2457122802734375, -3.9,-0.1) ">
<g transform="matrix( 1, 0, 0, 1, 0,0) ">
<use xlink:href="#premium_basic_0_Layer1_0_FILL"/>
</g>

<g transform="matrix( 1, 0, 0, 1, 0,0) ">
<use xlink:href="#premium_basic_0_Layer0_0_FILL"/>
</g>
</g>
</svg>
